<?xml version="1.0" encoding="utf-8"?>
<svg id="master-artboard" viewBox="0 0 1750 980" version="1.1" xmlns="http://www.w3.org/2000/svg" x="0px" y="0px" width="1750px" height="980px" enable-background="new 0 0 1750 980" xmlns:xlink="http://www.w3.org/1999/xlink"><defs><path d="M 0 0 H 1400 V 980 H 0 V 0 Z" id="XMLID_72_"/></defs>
<g>
	<path d="M 0 0 H 1750 V 980 H 0 V 0 Z" fill-rule="evenodd" clip-rule="evenodd" fill="#CCF1FF"/>
	<path fill-rule="evenodd" clip-rule="evenodd" fill="#CCEBFF" d="M0,504c106.6-17,205.9,47.7,307.9,32.3&#10;&#9;&#9;c83.8-12.6,146.3-90,227.8-113c32.7-9.3,66,19.9,100,20.4c45.2,0.7,90.1-24.8,134.6-16.9c100.3,17.9,190.4,107.6,291.2,92.8&#10;&#9;&#9;C1181.4,502,1243,348.3,1333.7,338c49.3-5.6,95.9,49.7,138.9,48.1c22-0.8,28-28.8,46.3-29.6c16.1-0.7,25.4,21.2,40.7,25.9&#10;&#9;&#9;c27.5,8.5,62.7-25,94.6-20.4c38.6,5.6,57.8,58.2,95.8,69.2V0H0V504z"/>
	<path fill-rule="evenodd" clip-rule="evenodd" fill="#C2E8FF" d="M0,131.9c89.5-3.7,136.9,79.3,220.2,88.9&#10;&#9;&#9;c44.9,5.2,101.1-37.9,133.4-24.1c20.3,8.6,23.1,23.7,38.9,27.8c21.3,5.6,43.8-19.4,64.8-13c18,5.5,22,28.8,38.9,35.2&#10;&#9;&#9;c49.6,18.8,157-110.6,225.9-103.7c38.2,3.8,62.3,51.9,88.6,50.7c11.8-0.6,22-11.5,31.7-15.5c22-9.2,45.6,13.8,64.8,13&#10;&#9;&#9;c13.9-0.6,26.9-10.6,40.7-9.3c51.9,4.9,109.9,116.1,190.7,107.4c57.4-6.2,76.9-94,131.4-113c43-15,92.1,38.4,135.2,20.4&#10;&#9;&#9;c42-17.5,23.8-100.6,64.9-120.1c37.9-18,80.8,38.7,122.1,31.2c27.1-4.9,30.2-48.8,53.8-63c24.1-14.5,69.6,2.5,103.9,3.7V0H0V131.9z&#10;&#9;&#9;"/>
</g>
<g>
	<path fill-rule="evenodd" clip-rule="evenodd" fill="#B4E5F7" d="M800.4,813c244.5-82,484.5-354.9,704.8-342.4&#10;&#9;&#9;c76.8,4.4,162.8,51.9,244.9,111.6V813H800.4z"/>
	<path fill="#5596C4" d="M1213.6,630.4c-0.3,0.8,0.8,1.3,1.1,0.5c4.6-10,7.2-7.9,9.9,2c0.2,0.8,1.4,0.5,1.2-0.3&#10;&#9;&#9;C1222.7,621.5,1218.7,619.3,1213.6,630.4L1213.6,630.4z M1238.3,636c-0.3,0.7,0.8,1.2,1.1,0.5c4.6-10,7.2-7.8,10,2&#10;&#9;&#9;c0.2,0.8,1.4,0.5,1.2-0.3C1247.5,627,1243.4,624.9,1238.3,636L1238.3,636z M1224,647.8c-0.3,0.7,0.8,1.3,1.1,0.5&#10;&#9;&#9;c4.6-10,7.2-7.9,10,2c0.2,0.8,1.4,0.4,1.2-0.4C1233.1,638.8,1229.1,636.7,1224,647.8L1224,647.8z"/>
	<path fill="#5596C4" d="M1396.8,543.7c-0.3,0.7,0.8,1.2,1.1,0.5c4.6-10,7.2-7.8,9.9,2c0.2,0.8,1.4,0.5,1.2-0.3&#10;&#9;&#9;C1405.9,534.8,1401.8,532.6,1396.8,543.7L1396.8,543.7z M1421.5,549.2c-0.3,0.7,0.8,1.2,1.1,0.5c4.6-10,7.2-7.8,10,2&#10;&#9;&#9;c0.2,0.8,1.4,0.5,1.2-0.3C1430.6,540.3,1426.6,538.1,1421.5,549.2L1421.5,549.2z M1407.1,561c-0.3,0.7,0.8,1.3,1.1,0.5&#10;&#9;&#9;c4.6-10,7.2-7.9,10,2c0.2,0.8,1.4,0.5,1.2-0.4C1416.3,552.1,1412.2,549.9,1407.1,561L1407.1,561z"/>
	<path fill="#5596C4" d="M1354.6,592.8c-0.3,0.7,0.8,1.2,1.1,0.5c4.6-10,7.2-7.8,9.9,2c0.2,0.8,1.4,0.5,1.2-0.3&#10;&#9;&#9;C1363.8,583.9,1359.7,581.7,1354.6,592.8L1354.6,592.8z M1379.4,598.3c-0.3,0.7,0.8,1.3,1.1,0.5c4.6-10,7.2-7.9,9.9,2&#10;&#9;&#9;c0.2,0.8,1.4,0.5,1.2-0.4C1388.5,589.4,1384.4,587.2,1379.4,598.3L1379.4,598.3z M1365,610.1c-0.3,0.7,0.8,1.3,1.1,0.5&#10;&#9;&#9;c4.6-10,7.2-7.9,10,2c0.2,0.8,1.4,0.5,1.2-0.3C1374.2,601.2,1370.1,599,1365,610.1L1365,610.1z"/>
	<path fill="#5596C4" d="M1741.2,599.1c0.3,0.7-0.8,1.2-1.1,0.5c-4.6-10-7.2-7.8-10,2c-0.2,0.8-1.4,0.5-1.2-0.3&#10;&#9;&#9;C1732,590.2,1736.1,588,1741.2,599.1L1741.2,599.1z M1716.5,604.6c0.3,0.7-0.8,1.3-1.1,0.5c-4.6-10.1-7.2-7.9-10,2&#10;&#9;&#9;c-0.2,0.8-1.4,0.5-1.2-0.3C1707.3,595.7,1711.4,593.5,1716.5,604.6L1716.5,604.6z M1730.8,616.4c0.3,0.7-0.8,1.3-1.1,0.5&#10;&#9;&#9;c-4.6-10-7.2-7.9-10,2c-0.2,0.8-1.4,0.5-1.2-0.4C1721.7,607.5,1725.7,605.3,1730.8,616.4L1730.8,616.4z"/>
	<path fill="#5596C4" d="M1583.6,515c0.3,0.7-0.8,1.2-1.1,0.5c-4.6-10-7.2-7.8-9.9,2c-0.2,0.8-1.4,0.5-1.2-0.3&#10;&#9;&#9;C1574.5,506.1,1578.5,503.9,1583.6,515L1583.6,515z M1558.9,520.5c0.3,0.7-0.8,1.3-1.1,0.5c-4.6-10-7.2-7.9-9.9,2&#10;&#9;&#9;c-0.2,0.8-1.4,0.4-1.2-0.4C1549.7,511.6,1553.8,509.4,1558.9,520.5L1558.9,520.5z M1573.2,532.3c0.3,0.7-0.8,1.3-1.1,0.5&#10;&#9;&#9;c-4.6-10-7.2-7.9-9.9,2c-0.2,0.8-1.4,0.5-1.2-0.3C1564.1,523.4,1568.2,521.2,1573.2,532.3L1573.2,532.3z"/>
</g>
<g>
	<path fill-rule="evenodd" clip-rule="evenodd" fill="#83D2E6" d="M445.4,813C625.6,753,823.6,621.4,986,630.7&#10;&#9;&#9;C1119.4,638.3,1271,753,1343.3,813H445.4z"/>
	<path fill-rule="evenodd" clip-rule="evenodd" fill="#83D2E6" d="M1063.6,619c-1.7,1.8-3.3,4.1-3.3,7.1c-1.6,1.9-2.2,4.2-1.7,6.8&#10;&#9;&#9;c-1.1,2.6-0.6,4.7,0.9,6.3c-1.5,4,0.1,6.4,2.4,8.4c-0.5,1.8,0,3.2,1.3,3.9c-0.2,1.6,0.1,3.3-0.1,5.3c0.8,0,1.7,0,2.5,0&#10;&#9;&#9;c0-2-0.5-3.4-0.4-4.9c1.6-0.9,2.1-3,1.9-5.6c2.2-2.1,2.6-4.8,1.5-8c1.4-2.7,1.5-5.4,0.5-8.1c0.4-2-1-5-2.8-5.7&#10;&#9;&#9;C1066.4,623,1065.6,621,1063.6,619L1063.6,619z"/>
	<path fill-rule="evenodd" clip-rule="evenodd" fill="#83D2E6" d="M1019.7,600.4c-1.7,1.8-3.3,4.1-3.3,7.2c-1.6,1.9-2.2,4.2-1.7,6.8&#10;&#9;&#9;c-1.2,2.6-0.6,4.7,0.9,6.3c-1.5,4,0.1,6.4,2.4,8.4c-0.5,1.8,0,3.1,1.2,3.7c-0.2,1.6,0.1,4.1-0.1,5.1c0.8,0,1.6,0,2.5,0&#10;&#9;&#9;c0-1-0.5-3.2-0.4-4.7c1.5-0.9,2.1-2.9,1.9-5.5c2.2-2.1,2.6-4.8,1.4-8c1.4-2.7,1.5-5.4,0.5-8c0.4-2-1-5-2.8-5.6&#10;&#9;&#9;C1022.5,604.3,1021.8,602.4,1019.7,600.4L1019.7,600.4z"/>
	<path fill-rule="evenodd" clip-rule="evenodd" fill="#83D2E6" d="M1103.3,648.1c-1.7,1.8-3.3,4.1-3.3,7.2c-1.6,1.9-2.2,4.2-1.7,6.8&#10;&#9;&#9;c-1.2,2.6-0.6,4.7,0.9,6.3c-1.5,4.1,0.1,6.4,2.4,8.4c-0.5,1.8,0,3.2,1.3,3.9c-0.2,1.6,0.1,4.3-0.1,5.3c0.8,0,1.7,0,2.5,0&#10;&#9;&#9;c0-1-0.5-3.4-0.4-4.8c1.6-0.9,2.1-3,1.9-5.6c2.2-2.1,2.6-4.8,1.5-8c1.4-2.7,1.5-5.4,0.5-8c0.4-2-1-5.1-2.8-5.7&#10;&#9;&#9;C1106,652.1,1105.3,650.1,1103.3,648.1L1103.3,648.1z"/>
	<path fill-rule="evenodd" clip-rule="evenodd" fill="#83D2E6" d="M904.6,624.5c-1.7,1.8-3.3,4.1-3.3,7.2c-1.6,1.9-2.2,4.2-1.7,6.8&#10;&#9;&#9;c-1.2,2.6-0.6,4.6,0.9,6.3c-1.5,4.1,0.1,6.4,2.4,8.4c-0.6,1.8,0,3.5,1.2,4.2c-0.2,1.6,0.1,2.6-0.1,5.6c0.8,0,1.6,0,2.5,0&#10;&#9;&#9;c0-2-0.5-3.6-0.4-5.1c1.6-0.9,2.1-3.1,2-5.7c2.2-2.1,2.6-4.9,1.4-8.1c1.4-2.7,1.5-5.4,0.5-8.1c0.4-2-1-5-2.8-5.6&#10;&#9;&#9;C907.4,628.5,906.7,626.5,904.6,624.5L904.6,624.5z"/>
</g>
<path fill-rule="evenodd" clip-rule="evenodd" fill="#97D6ED" d="M1190.8,813c112.2-38,222.2-162.8,323.3-157.1&#10;&#9;c83.1,4.8,190.7,120.1,235.6,157.1H1190.8z"/>
<g transform="matrix(1, 0, 0, 1, -106.86567583673298, -39.18408017099378)">
	<path fill-rule="evenodd" clip-rule="evenodd" fill="#89FAA7" d="M228.8,813C408.9,753,607,621.4,769.3,630.7&#10;&#9;&#9;c133.5,7.6,285.1,122.3,357.3,182.3H228.8z"/>
	<path fill-rule="evenodd" clip-rule="evenodd" fill="#5ED67E" d="M692.4,635.4c22.3-3.7,44-5.6,65.2-5.2&#10;&#9;&#9;C631.9,669.2,489.5,749,362.6,813h-54.6C427.6,756,565.5,681.6,692.4,635.4L692.4,635.4z M796,633.5c10.3,1.6,20.7,3.8,31.1,6.4&#10;&#9;&#9;c-112.6,34-239.8,108.1-356,173.1h-50.1C540.4,749,675.2,673.1,796,633.5L796,633.5z M852.4,647.2c7.8,2.6,15.7,5.4,23.5,8.4&#10;&#9;&#9;C779.6,687.3,673,753,573.8,813h-46.1C632.2,752,747.4,683.4,852.4,647.2L852.4,647.2z M897.8,664.7c6.7,2.9,13.4,6,20,9.2&#10;&#9;&#9;C838,703.8,752.1,759,670.8,813H628C715.5,757,809.9,698.3,897.8,664.7L897.8,664.7z M938.8,684.4c6,3.2,12,6.4,17.9,9.7&#10;&#9;&#9;C893.1,721.9,826.4,767,762.7,813h-39.7C793,764,867.7,715.3,938.8,684.4L938.8,684.4z M977.6,706.2c5.6,3.3,11.1,6.7,16.5,10.1&#10;&#9;&#9;c-47.8,24.6-96.9,59.7-144.3,96.7h-37C866.3,773,922.8,733.7,977.6,706.2L977.6,706.2z M1015.4,729.9c5.4,3.5,10.6,7.1,15.8,10.7&#10;&#9;&#9;c-32.9,20.1-66.1,45.4-98.3,72.4h-35.5C935.7,783,975.9,752.9,1015.4,729.9L1015.4,729.9z M1053.2,756c5.2,3.8,10.4,7.6,15.4,11.3&#10;&#9;&#9;c-18.9,13.7-37.8,29.7-56.3,45.7h-32.5C1003.7,792,1028.5,772.9,1053.2,756L1053.2,756z M1089.5,783.2c6,4.6,11.7,9.1,17.1,13.5&#10;&#9;&#9;c-6.1,5.3-12.1,11.3-18.1,16.3H1053C1065,803,1077.3,792.5,1089.5,783.2L1089.5,783.2z"/>
</g>
<g>
	<path fill-rule="evenodd" clip-rule="evenodd" fill="#68ED9D" d="M778.6,813c147.5-38,309.5-119.3,442.4-113.5&#10;&#9;&#9;c109.3,4.7,233.3,76.5,292.4,113.5H778.6z"/>
	<path fill-rule="evenodd" clip-rule="evenodd" fill="#44C785" d="M985.7,746.3c39.7-13.2,79-25.2,117.1-33.9&#10;&#9;&#9;C1035.7,743.7,967.7,780,902.7,813h-52.5C893.9,792,939.5,768.6,985.7,746.3L985.7,746.3z M1179.8,700.2c14-1.1,27.8-1.4,41.2-0.8&#10;&#9;&#9;c1.1,0,2.2,0.2,3.4,0.2C1152.9,731.8,1078.9,774,1008,813h-48.4C1030.7,775,1106,733.9,1179.8,700.2L1179.8,700.2z M1263.3,704.3&#10;&#9;&#9;c9.4,1.7,18.8,3.8,28.1,6.2c-60.7,28.7-123.2,65.6-183.7,102.6h-44.8C1128.1,775,1196.5,735.6,1263.3,704.3L1263.3,704.3z&#10;&#9;&#9; M1321.8,719.2c7.8,2.5,15.5,5.2,23.1,8.1c-47.3,24.5-95.6,55.7-142.8,85.7h-41.5C1213.3,780,1268,746.3,1321.8,719.2L1321.8,719.2&#10;&#9;&#9;z M1372.4,738.1c7,2.9,13.9,6,20.6,9.1c-33.7,19.4-67.8,42.8-101.3,65.8h-38.7C1292.2,786,1332.4,760.3,1372.4,738.1L1372.4,738.1z&#10;&#9;&#9; M1419.3,759.7c6.6,3.3,13,6.6,19.2,9.9c-20.5,13.3-41.1,28.4-61.4,43.4H1341C1366.8,795,1393,776,1419.3,759.7L1419.3,759.7z&#10;&#9;&#9; M1464.2,783.5c6.5,3.7,12.7,7.3,18.6,10.8c-8.1,6-16.2,12.7-24.2,18.7h-34.6C1437.3,803,1450.7,792.9,1464.2,783.5L1464.2,783.5z&#10;&#9;&#9; M1508.8,810.1c1.6,1,3.1,2.9,4.7,2.9h-8.3C1506.3,812,1507.6,811.1,1508.8,810.1L1508.8,810.1z"/>
</g>
<path fill-rule="evenodd" clip-rule="evenodd" fill="#D1FFAB" d="M1750,734.9c-12.3,1.9-24.5,5.6-36.9,5.6&#10;&#9;c-21.7,0-43.2-5.6-64.9-5.6c-17.4,0-34.5,5.3-51.9,5.6c-14.2,0.3-28.4-4-42.6-3.7c-16.1,0.4-32,5.3-48.1,5.6&#10;&#9;c-82.7,1.5-165.4-2-248.1,0c-19.3,0.5-38.1,7.8-57.4,7.4c-13.9-0.3-26.8-9.3-40.7-9.3c-14.5,0-28.1,8.1-42.6,9.3&#10;&#9;c-8.7,0.7-17.2-4.3-25.9-3.7c-18.1,1.3-35.5,8.9-53.7,9.3c-16.2,0.3-31.9-7.4-48.1-7.4s-31.9,6.7-48.1,7.4&#10;&#9;c-12.4,0.5-24.7-5.2-37-3.7c-19,2.3-36.8,10.8-55.6,14.8c-14.3,3.1-29.2,3.6-43.6,6.5c-16.5,3.3-32.2,11-49,12&#10;&#9;c-19.2,1.2-38.2-4.6-57.4-5.6c-16.7-0.8-33.4,1.6-50,0c-6.5-0.6-12.1-5.5-18.6-6.4c-19.6-2.8-39.7-1.2-59.2-4.7&#10;&#9;c-10.4-1.9-19.1-11.6-29.6-11.1c-29.1,1.2-57.1,12.3-86.1,15.8c-17.4,2.1-35.3-1.8-52.7,0.9c-17.2,2.6-32.6,14.9-50,14.8&#10;&#9;c-24.6-0.2-47.6-16.4-72.2-15.7c-17.8,0.5-32.4,16-50,19.4c-13.3,2.6-27.3-3.6-40.7-1.9c-20.2,2.6-39.1,12-59.3,14.8&#10;&#9;c-15.9,2.2-32.2-1.5-48.1,0c-10.1,1-19.7,6.3-29.8,7.4c-17.2,2-35,1.2-52.1,1.9V980h1750V734.9z"/>
<path fill-rule="evenodd" clip-rule="evenodd" fill="#FFFFCC" d="M1300.6,49.3c-29.4,0-53.1,23.8-53.1,53.2&#10;&#9;c0,29.4,23.8,53.2,53.1,53.2c29.3,0,53.1-23.8,53.1-53.2C1353.7,73.1,1329.9,49.3,1300.6,49.3L1300.6,49.3z"/>
<g>
	<path d="M 0 813 H 1750 V 980 H 0 V 813 Z" fill-rule="evenodd" clip-rule="evenodd" fill="#7FCC68"/>
	<path fill-rule="evenodd" clip-rule="evenodd" fill="#70BD59" d="M1750,862.3V980H0V864.8c104.2,9.3,204.5-46.3,292.1-17.1&#10;&#9;&#9;C466.9,906,637.5,781,813.5,867c108.9,53.2,102.7-35.3,241.4,2.1c69.1,18.6,191.8-72.4,291-9.7c64.7,40.9,154-19.4,224.9,9.9&#10;&#9;&#9;c33.4,13.9,108.2,9.9,179.2-6.8V862.3z"/>
	<path d="M 0 813 H 1750 V 824 H 0 V 813 Z" fill-rule="evenodd" clip-rule="evenodd" fill="#B8F087"/>
</g>
<g>
	<path fill-rule="evenodd" clip-rule="evenodd" fill="#348C4D" d="M523.4,971c7.1-37.1,38.7-99,21.4-111.4&#10;&#9;&#9;c-17.2,0.3-25.9,67.5-29.9,115.7c-0.4-41.4,10.6-92.5,7.7-109.1c-19.4,1.3-20.3,75.5-18.1,107c-5.6-33.7-5-94.4-30.3-102.1&#10;&#9;&#9;c-7.8,3.6,17.2,55.2,16.4,97.9c-2.8-30.1-15.9-65.5-32.7-66.9c-10.1,6.5,18.9,42.2,21.3,68.3c-6.7-18.7-27-46.2-48.6-37.4&#10;&#9;&#9;c5.2,16.3,32.4,21,47.5,47c21.8,0,39.8,0,61.6,0c8.7-16,36-29.2,34.8-34.2c-6.1-2.3-28.1,9.1-44.2,29c11.5-24.2,49.3-58.5,42.6-70&#10;&#9;&#9;C562.4,901.6,534.4,938.5,523.4,971L523.4,971z"/>
	<path fill-rule="evenodd" clip-rule="evenodd" fill="#348C4D" d="M788.5,968.7c9.2-47.8,49.8-127.4,27.5-143.4&#10;&#9;&#9;c-22.1,0.4-33.3,86.9-38.5,148.9c-0.5-53.3,13.7-119.1,9.8-140.4c-25,1.6-26.1,97.2-23.3,137.7c-7.2-43.3-6.4-121.4-39-131.4&#10;&#9;&#9;c-10.1,4.6,22.1,71,21.1,126c-3.6-38.8-20.5-84.3-42.1-86.1c-13,8.4,24.3,54.3,27.3,87.9c-8.6-24.1-34.7-59.6-62.5-48.3&#10;&#9;&#9;c6.7,21,41.7,28.4,61.2,60.4c28.1,0,51.2,0,79.3,0c11.1-20,46.3-37.5,44.8-43.9c-7.8-2.9-36.2,11.8-56.9,37.4&#10;&#9;&#9;c14.8-31.1,63.4-75.2,54.9-90C838.8,879.4,802.8,926.8,788.5,968.7L788.5,968.7z"/>
	<path fill-rule="evenodd" clip-rule="evenodd" fill="#348C4D" d="M954.3,980c-12.1,0-21.2-14.3-23.5-28.7c9.2-3,16.8-0.1,23.9,5.2&#10;&#9;&#9;c-5.6-7.9-7.5-17.3-6.3-27.9c7.2,0.4,13.2,3.5,16.8,11.7c-3.4-12.8-0.6-24.8,7-36c12.1,0.5,17.5,6.2,22.3,12.5&#10;&#9;&#9;c-4.2-6.2-6.9-13.5-7.5-22.3c7.9,0.7,13.6,5.1,18.4,11.3c-3.8-9.3-3.2-18.5,2.3-27.8c11.9,4,17.7,13.3,20.7,25.1&#10;&#9;&#9;c1.4-8.2,6.5-15.1,15.3-20.8c2.4,7.3,2.4,14.9-0.4,22.7c7.2-6.4,15.6-8.1,24.6-6.7c0.1,7.5-0.9,14.6-7,20.8&#10;&#9;&#9;c8.4-1.3,16.7-0.1,25.1,5.1c-2,5-5.4,8.8-10.6,11.3c10.5-1.6,20.6-0.1,30.5,4.3c-5.9-3.9-9.8-9-11-16c7.8-1.2,14.8,1.3,21.5,5.8&#10;&#9;&#9;c-8.2-8.5-8.9-19.6-5.1-32.1c11.2,1.7,17,6.8,20.3,13.3c-4.2-11.3-4-23.2-0.4-35.6c8.7,5,13.5,13.5,14.1,25.8&#10;&#9;&#9;c5.2-16.5,16.7-23.5,32-24.3c0.2,9.9-2.4,18-9,23.5c7.6-5.2,16.3-7,26.2-5.5c-1.4,10.9-6.1,19.1-15.6,23.5&#10;&#9;&#9;c13.2-4.3,26.7-4.8,40.7,1.6c-3.4,10.4-10.5,18.5-24.9,22.1c16.8-1.5,29.3,3.4,40.2,10.8c-6.9,8.2-16.3,12.1-28.2,11.7&#10;&#9;&#9;c6.7,1.4,9.6,4.7,11.3,7.9c7.6-0.7,12.8,2.6,17.2,7.6C1141.7,980,1048,980,954.3,980L954.3,980z"/>
	<path fill-rule="evenodd" clip-rule="evenodd" fill="#348C4D" d="M1495,980c-10.3,0-17.9-12.1-19.8-24.3c7.7-2.6,14.2-0.1,20.2,4.4&#10;&#9;&#9;c-4.7-6.7-6.3-14.7-5.3-23.6c6.2,0.3,11.2,2.9,14.2,9.8c-2.8-10.8-0.5-20.9,5.9-30.4c10.2,0.4,14.8,5.2,18.8,10.6&#10;&#9;&#9;c-3.5-5.3-5.8-11.4-6.3-18.8c6.6,0.6,11.5,4.3,15.5,9.6c-3.3-7.8-2.7-15.7,2-23.5c10,3.4,15,11.2,17.5,21.1&#10;&#9;&#9;c1.2-6.9,5.5-12.8,12.9-17.5c2,6.2,2,12.6-0.3,19.2c6.1-5.4,13.2-6.8,20.8-5.6c0.1,6.3-0.7,12.4-5.9,17.5&#10;&#9;&#9;c7.1-1.1,14.1-0.1,21.1,4.3c-1.6,4.2-4.5,7.5-8.9,9.6c8.9-1.4,17.5-0.1,25.8,3.6c-5-3.3-8.3-7.7-9.3-13.5c6.5-1,12.5,1.1,18.2,4.9&#10;&#9;&#9;c-7-7.2-7.5-16.6-4.3-27.1c9.5,1.5,14.3,5.7,17.2,11.2c-3.5-9.6-3.4-19.6-0.3-30c7.3,4.2,11.4,11.4,11.9,21.8&#10;&#9;&#9;c4.4-13.9,14.1-19.8,27.1-20.5c0.1,8.4-2,15.2-7.6,19.8c6.4-4.4,13.7-6,22.1-4.6c-1.2,9.2-5.2,16.1-13.2,19.8&#10;&#9;&#9;c11.2-3.6,22.5-4.1,34.4,1.3c-2.9,8.8-8.9,15.6-21.1,18.6c14.2-1.3,24.8,2.9,33.9,9.1c-5.8,7-13.8,10.2-23.8,9.9&#10;&#9;&#9;c5.6,1.2,8.1,4.1,9.6,6.8c6.4-0.6,10.8,2.4,14.5,6.4C1653.3,980,1574.1,980,1495,980L1495,980z"/>
	<path fill-rule="evenodd" clip-rule="evenodd" fill="#348C4D" d="M1750,848.1c-7.4,38.2-6.6,92.3-4.6,121.8&#10;&#9;&#9;c-8.6-52.1-7.8-145.8-46.9-157.8c-12.1,5.5,26.5,85.3,25.3,151.4c-4.3-46.6-24.6-101.3-50.6-103.4c-15.6,10.1,29.2,65.3,32.8,105.6&#10;&#9;&#9;c-10.3-28.9-41.7-71.7-75.1-58.1c8,25.2,50.1,32.5,73.5,72.5h45.6V848.1z"/>
</g>
<g>
	<g>
		<path fill-rule="evenodd" clip-rule="evenodd" fill="#25783D" d="M26.2,980c-12,0-21.3-14.1-26.2-26.3v-8.6&#10;&#9;&#9;&#9;c9.8-2.5,18.6,1.2,26.4,7.1c-6.6-9.4-8.7-20.4-7.3-32.9c8.6,0.4,15.7,4.2,20,13.9c-4-15.2-0.6-29.3,8.4-42.6&#10;&#9;&#9;&#9;c14.3,0.6,20.8,7.4,26.4,14.8c-4.9-7.4-8.1-16-8.8-26.4c9.3,0.9,16.1,6.1,21.8,13.4c-4.5-11-3.8-21.9,2.8-32.9&#10;&#9;&#9;&#9;c14.1,4.7,21,15.7,24.5,29.7c1.7-9.7,7.7-17.9,18.1-24.5c2.9,8.6,2.8,17.6-0.5,26.9c8.6-7.6,18.4-9.6,29.1-7.9&#10;&#9;&#9;&#9;c0.1,8.8-1,17.3-8.3,24.5c9.9-1.5,19.8-0.1,29.6,6c-2.3,5.9-6.4,10.5-12.5,13.4c12.4-1.9,24.5-0.1,36.1,5.1&#10;&#9;&#9;&#9;c-7-4.6-11.7-10.7-13-19c9.2-1.4,17.5,1.5,25.5,6.9c-9.7-10.1-10.5-23.2-6-38c13.3,2,20.1,8,24.1,15.7&#10;&#9;&#9;&#9;c-4.9-13.4-4.8-27.5-0.5-42.1c10.3,5.9,15.9,16,16.7,30.6c6.2-19.5,19.7-27.8,38-28.7c0.2,11.7-2.8,21.3-10.7,27.8&#10;&#9;&#9;&#9;c9-6.1,19.3-8.4,31-6.5c-1.7,12.9-7.2,22.7-18.5,27.8c15.6-5.1,31.6-5.7,48.1,1.9c-4,12.3-12.5,21.8-29.5,26.1&#10;&#9;&#9;&#9;c19.9-1.8,34.7,4.1,47.5,12.8c-8.2,9.7-19.3,14.4-33.3,13.9c7.9,1.6,11.4,5.5,13.4,9.3c9-0.8,15.1,3.8,20.4,8.8&#10;&#9;&#9;&#9;C248,980,137.1,980,26.2,980L26.2,980z"/>
		<path fill-rule="evenodd" clip-rule="evenodd" fill="#25783D" d="M421.4,980c-7.5,0-13.2-9-14.6-18c5.7-1.9,10.4-0.1,14.8,3.2&#10;&#9;&#9;&#9;c-3.4-4.9-4.7-10.8-3.9-17.3c4.5,0.2,8.2,2.1,10.4,7.2c-2.1-7.9-0.3-15.4,4.4-22.4c7.5,0.3,10.9,3.9,13.8,7.8&#10;&#9;&#9;&#9;c-2.6-3.9-4.3-8.4-4.6-13.8c4.9,0.5,8.5,3.2,11.4,7c-2.4-5.7-2-11.5,1.5-17.2c7.4,2.5,11,8.2,12.9,15.5c0.9-5.1,4-9.4,9.4-12.8&#10;&#9;&#9;&#9;c1.5,4.5,1.5,9.2-0.2,14.1c4.5-4,9.7-5,15.3-4.1c0.1,4.6-0.6,9.1-4.4,12.9c5.2-0.8,10.4-0.1,15.5,3.2c-1.2,3.1-3.3,5.5-6.5,7&#10;&#9;&#9;&#9;c6.5-1,12.8-0.1,18.9,2.7c-3.7-2.4-6.1-5.6-6.8-9.9c4.8-0.7,9.2,0.8,13.4,3.6c-5.1-5.3-5.5-12.2-3.1-19.9c7,1.1,10.5,4.2,12.6,8.2&#10;&#9;&#9;&#9;c-2.6-7-2.5-14.4-0.2-22.1c5.4,3.1,8.4,8.4,8.7,16c3.3-10.2,10.3-14.6,19.9-15.1c0.1,6.1-1.5,11.2-5.6,14.6&#10;&#9;&#9;&#9;c4.7-3.2,10.1-4.4,16.3-3.4c-0.9,6.7-3.8,11.9-9.7,14.6c8.2-2.7,16.6-3,25.3,1c-2.1,6.4-6.6,11.4-15.5,13.7&#10;&#9;&#9;&#9;c10.4-0.9,18.2,2.1,24.9,6.7c-4.3,5.1-10.1,7.5-17.5,7.3c4.1,0.9,5.9,3.1,7,5.1c4.7-0.4,7.9,1.9,10.7,4.9&#10;&#9;&#9;&#9;C537.7,980,479.6,980,421.4,980L421.4,980z"/>
		<path fill-rule="evenodd" clip-rule="evenodd" fill="#25783D" d="M580.3,980c-12.1,0-21.2-14.3-23.5-28.7c9.2-3,16.8-0.1,23.9,5.2&#10;&#9;&#9;&#9;c-5.6-7.9-7.5-17.3-6.3-27.9c7.2,0.4,13.2,3.5,16.8,11.7c-3.4-12.8-0.5-24.8,7.1-36c12.1,0.5,17.5,6.2,22.3,12.5&#10;&#9;&#9;&#9;c-4.2-6.2-6.9-13.5-7.5-22.3c7.9,0.7,13.6,5.1,18.4,11.3c-3.8-9.3-3.2-18.5,2.3-27.8c11.9,4,17.7,13.3,20.7,25.1&#10;&#9;&#9;&#9;c1.4-8.2,6.5-15.1,15.3-20.8c2.4,7.3,2.4,14.9-0.4,22.7c7.2-6.4,15.6-8.1,24.6-6.7c0.1,7.5-0.9,14.6-7,20.8&#10;&#9;&#9;&#9;c8.4-1.3,16.7-0.1,25,5.1c-1.9,5-5.4,8.8-10.5,11.3c10.5-1.6,20.6-0.1,30.5,4.3c-5.9-3.9-9.8-9-11-16c7.7-1.2,14.8,1.3,21.5,5.8&#10;&#9;&#9;&#9;c-8.2-8.5-8.9-19.6-5.1-32.1c11.2,1.7,17,6.8,20.3,13.3c-4.2-11.3-4.1-23.2-0.4-35.6c8.7,5,13.5,13.5,14.1,25.8&#10;&#9;&#9;&#9;c5.2-16.5,16.7-23.5,32-24.3c0.2,9.9-2.4,18-9,23.5c7.6-5.2,16.3-7,26.2-5.5c-1.4,10.9-6.1,19.1-15.6,23.5&#10;&#9;&#9;&#9;c13.2-4.3,26.7-4.8,40.7,1.6c-3.4,10.4-10.6,18.5-24.9,22.1c16.8-1.5,29.3,3.4,40.2,10.8c-6.9,8.2-16.3,12.1-28.2,11.7&#10;&#9;&#9;&#9;c6.7,1.4,9.6,4.7,11.3,7.9c7.6-0.7,12.8,2.6,17.2,7.6C767.7,980,674,980,580.3,980L580.3,980z"/>
		<path fill-rule="evenodd" clip-rule="evenodd" fill="#25783D" d="M937.3,971.2c-7-36.6-38.1-97.5-21.1-109.7&#10;&#9;&#9;&#9;c16.9,0.4,25.5,66.5,29.5,113.9c0.4-40.8-10.5-91-7.6-107.3c19.1,1.3,19.9,74.3,17.8,105.3c5.5-33.1,4.9-92.8,29.8-100.4&#10;&#9;&#9;&#9;c7.7,3.5-16.9,54.3-16.1,96.4c2.7-29.6,15.7-64.5,32.2-65.9c9.9,6.4-18.5,41.6-20.9,67.2c6.6-18.4,26.6-45.5,47.8-36.8&#10;&#9;&#9;&#9;c-5.1,16-31.9,21.3-46.8,46.3c-21.5,0-39.2,0-60.6,0c-8.5-15-35.4-28.8-34.3-33.7c6-2.2,27.7,9,43.5,28.6&#10;&#9;&#9;&#9;c-11.3-23.8-48.5-57.5-42-68.9C898.9,902.8,926.4,939.1,937.3,971.2L937.3,971.2z"/>
		<path fill-rule="evenodd" clip-rule="evenodd" fill="#25783D" d="M1200.7,971.2c-7-36.6-38.1-97.5-21.1-109.7&#10;&#9;&#9;&#9;c16.9,0.4,25.5,66.5,29.5,113.9c0.4-40.8-10.5-91-7.6-107.3c19.1,1.3,19.9,74.3,17.8,105.3c5.5-33.1,4.9-92.8,29.8-100.4&#10;&#9;&#9;&#9;c7.7,3.5-16.9,54.3-16.1,96.4c2.7-29.6,15.7-64.5,32.2-65.9c9.9,6.4-18.5,41.6-20.9,67.2c6.5-18.4,26.6-45.5,47.8-36.8&#10;&#9;&#9;&#9;c-5.1,16-31.9,21.3-46.8,46.3c-21.5,0-39.2,0-60.7,0c-8.5-15-35.4-28.8-34.3-33.7c6-2.2,27.7,9,43.5,28.6&#10;&#9;&#9;&#9;c-11.3-23.8-48.5-57.5-42-68.9C1162.2,902.8,1189.7,939.1,1200.7,971.2L1200.7,971.2z"/>
		<path fill-rule="evenodd" clip-rule="evenodd" fill="#25783D" d="M1242.7,973.6c-4.9-25.3-26.4-67.5-14.6-76&#10;&#9;&#9;&#9;c11.7,0.2,17.6,46,20.4,78.9c0.3-28.2-7.2-63.1-5.2-74.4c13.2,0.9,13.8,51.5,12.4,72.9c3.8-23,3.4-64.3,20.6-69.6&#10;&#9;&#9;&#9;c5.3,2.4-11.7,37.6-11.2,66.8c1.9-20.6,10.9-44.7,22.3-45.6c6.9,4.4-12.9,28.8-14.5,46.6c4.5-12.7,18.4-31.3,33.1-25.4&#10;&#9;&#9;&#9;c-3.6,11.1-22.1,14.2-32.4,32.2c-14.9,0-27.1,0-42,0c-5.9-12-24.6-20.1-23.8-23.5c4.2-1.5,19.2,6.2,30.2,19.7&#10;&#9;&#9;&#9;c-7.9-16.5-33.6-39.9-29.1-47.7C1216.1,926.3,1235.1,951.4,1242.7,973.6L1242.7,973.6z"/>
		<path fill-rule="evenodd" clip-rule="evenodd" fill="#25783D" d="M1498.9,971.2c-7-36.6-38.1-97.5-21.1-109.7&#10;&#9;&#9;&#9;c16.9,0.4,25.5,66.5,29.5,113.9c0.4-40.8-10.5-91-7.6-107.3c19.1,1.3,19.9,74.3,17.8,105.3c5.5-33.1,5-92.8,29.8-100.4&#10;&#9;&#9;&#9;c7.7,3.5-16.9,54.3-16.1,96.4c2.8-29.6,15.7-64.5,32.2-65.9c9.9,6.4-18.6,41.6-20.9,67.2c6.6-18.4,26.6-45.5,47.8-36.8&#10;&#9;&#9;&#9;c-5.1,16-31.9,21.3-46.8,46.3c-21.5,0-39.2,0-60.7,0c-8.5-15-35.4-28.8-34.3-33.7c6-2.2,27.7,9,43.5,28.6&#10;&#9;&#9;&#9;c-11.3-23.8-48.5-57.5-42-68.9C1460.5,902.8,1488,939.1,1498.9,971.2L1498.9,971.2z"/>
	</g>
	<path fill-rule="evenodd" clip-rule="evenodd" fill="#25783D" d="M1665.6,980c-7.5-4-13.1-9-14.4-17.8c5.6-1.9,10.3-0.1,14.7,3.1&#10;&#9;&#9;c-3.4-4.9-4.6-10.7-3.9-17.2c4.5,0.2,8.2,2.1,10.4,7.2c-2.1-7.9-0.3-15.3,4.3-22.2c7.5,0.3,10.8,3.8,13.7,7.7&#10;&#9;&#9;c-2.6-3.8-4.3-8.3-4.6-13.7c4.8,0.5,8.4,3.1,11.3,7c-2.3-5.7-2-11.4,1.5-17.1c7.3,2.4,10.9,8.2,12.8,15.4c0.9-5,4-9.3,9.4-12.8&#10;&#9;&#9;c1.5,4.5,1.5,9.2-0.2,14c4.5-4,9.6-5,15.2-4.1c0.1,4.6-0.6,9-4.3,12.7c5.1-0.8,10.3-0.1,15.4,3.2c-1.2,3.1-3.2,5.4-6.3,7&#10;&#9;&#9;c3.2-0.5,5.9-0.5,9.6-0.1V980H1665.6z"/>
</g>
<g>
	<path fill-rule="evenodd" clip-rule="evenodd" fill="#348C4D" d="M618.7,973.3c5.1-26.6,27.7-70.8,15.3-79.7&#10;&#9;&#9;c-12.3,0.2-18.5,48.3-21.4,82.8c-0.3-29.6,7.6-66.2,5.5-78c-13.9,0.9-14.5,54-12.9,76.5c-4-24.1-3.6-67.5-21.7-73&#10;&#9;&#9;c-5.6,2.6,12.3,39.5,11.7,70.1c-2-21.5-11.4-46.9-23.4-47.9c-7.2,4.7,13.5,30.2,15.2,48.8c-4.8-13.4-19.3-32.9-34.7-26.6&#10;&#9;&#9;c3.7,11.6,23.2,14.8,34,33.8c15.6,0,28.5,0,44.1,0c6.2-12,25.8-21.1,24.9-24.6c-4.3-1.6-20.1,6.4-31.6,20.7&#10;&#9;&#9;c8.3-17.3,35.2-41.9,30.5-50.1C646.6,923.7,626.7,950,618.7,973.3L618.7,973.3z"/>
	<path fill-rule="evenodd" clip-rule="evenodd" fill="#348C4D" d="M687.3,973.3c5.1-26.6,27.7-70.8,15.3-79.7&#10;&#9;&#9;c-12.3,0.2-18.5,48.3-21.4,82.8c-0.3-29.6,7.6-66.2,5.5-78c-13.9,0.9-14.5,54-12.9,76.5c-4-24.1-3.6-67.5-21.7-73&#10;&#9;&#9;c-5.6,2.6,12.3,39.5,11.7,70.1c-2-21.5-11.4-46.9-23.4-47.9c-7.2,4.7,13.5,30.2,15.2,48.8c-4.8-13.4-19.3-32.9-34.8-26.6&#10;&#9;&#9;c3.7,11.6,23.2,14.8,34,33.8c15.6,0,28.5,0,44.1,0c6.2-12,25.8-21.1,24.9-24.6c-4.3-1.6-20.1,6.4-31.6,20.7&#10;&#9;&#9;c8.2-17.3,35.2-41.9,30.5-50.1C715.2,923.7,695.2,950,687.3,973.3L687.3,973.3z"/>
	<g>
		<path fill-rule="evenodd" clip-rule="evenodd" fill="#348C4D" d="M193.8,968.4c-9.5-49.4-51.5-131.6-28.4-148.1&#10;&#9;&#9;&#9;c22.8,0.4,34.4,89.8,39.8,153.8c0.6-55-14.1-123-10.2-145c25.8,1.7,26.9,100.4,24.1,142.2c7.4-44.8,6.7-125.4,40.3-135.7&#10;&#9;&#9;&#9;c10.4,4.7-22.8,73.3-21.8,130.1c3.7-40,21.2-87.1,43.5-88.9c13.4,8.7-25.1,56.1-28.2,90.8c8.9-24.9,35.9-61.6,64.6-49.9&#10;&#9;&#9;&#9;c-6.9,21.6-43.1,28.4-63.2,62.4c-29,0-52.9,0-81.9,0c-11.5-21-47.8-38.7-46.3-45.3c8.1-3,37.4,12.2,58.8,38.7&#10;&#9;&#9;&#9;c-15.3-32.1-65.5-77.7-56.7-93C141.9,876.1,179,925.1,193.8,968.4L193.8,968.4z"/>
		<path fill-rule="evenodd" clip-rule="evenodd" fill="#348C4D" d="M2.3,968.4c-0.6-3.3-1.1-6.8-2.3-10.4v-86.1&#10;&#9;&#9;&#9;c7.4,30.6,11.2,69.7,13.9,102.2c0.6-55-14-123-10.1-145c25.8,1.7,27,100.4,24.1,142.2c7.4-44.8,6.7-125.4,40.3-135.7&#10;&#9;&#9;&#9;c10.4,4.7-22.8,73.3-21.7,130.1c3.7-40,21.2-87.1,43.5-88.9c13.4,8.7-25.1,56.1-28.2,90.8c8.9-24.9,35.9-61.6,64.6-49.9&#10;&#9;&#9;&#9;c-6.9,21.6-43.1,28.4-63.2,62.4H0v-18C1.2,964.1,1.6,966.3,2.3,968.4L2.3,968.4z"/>
		<path fill-rule="evenodd" clip-rule="evenodd" fill="#348C4D" d="M383.3,971.2c-7-36.6-38.1-97.5-21.1-109.7&#10;&#9;&#9;&#9;c16.9,0.4,25.5,66.5,29.5,113.9c0.4-40.8-10.5-91-7.6-107.3c19.1,1.3,19.9,74.3,17.8,105.3c5.5-33.1,4.9-92.8,29.8-100.4&#10;&#9;&#9;&#9;c7.7,3.5-16.9,54.3-16.1,96.4c2.8-29.6,15.7-64.5,32.2-65.9c9.9,6.4-18.5,41.6-20.9,67.2c6.5-18.4,26.6-45.5,47.8-36.8&#10;&#9;&#9;&#9;c-5.1,16-31.9,21.3-46.8,46.3c-21.5,0-39.2,0-60.7,0c-8.5-15-35.4-28.8-34.3-33.7c6-2.2,27.7,9,43.5,28.6&#10;&#9;&#9;&#9;c-11.3-23.8-48.5-57.5-42-68.9C344.8,902.8,372.3,939.1,383.3,971.2L383.3,971.2z"/>
		<path fill-rule="evenodd" clip-rule="evenodd" fill="#348C4D" d="M1273,980c-7.5,0-13.1-9-14.4-17.8c5.7-1.9,10.4-0.1,14.7,3.1&#10;&#9;&#9;&#9;c-3.4-4.9-4.6-10.7-3.8-17.2c4.5,0.2,8.2,2.1,10.4,7.2c-2.1-7.9-0.3-15.3,4.3-22.2c7.5,0.3,10.8,3.8,13.7,7.7&#10;&#9;&#9;&#9;c-2.6-3.8-4.2-8.3-4.5-13.7c4.8,0.5,8.4,3.1,11.3,7c-2.3-5.7-2-11.4,1.5-17.1c7.3,2.4,10.9,8.2,12.7,15.4c0.9-5,4-9.3,9.4-12.8&#10;&#9;&#9;&#9;c1.5,4.5,1.5,9.2-0.2,14c4.4-4,9.6-5,15.2-4.1c0,4.6-0.6,9-4.3,12.7c5.1-0.8,10.3-0.1,15.4,3.2c-1.2,3.1-3.3,5.4-6.5,7&#10;&#9;&#9;&#9;c6.5-1,12.7-0.1,18.8,2.6c-3.6-2.4-6.1-5.6-6.7-9.9c4.8-0.7,9.1,0.8,13.2,3.6c-5-5.3-5.5-12.1-3.1-19.7c6.9,1.1,10.5,4.2,12.5,8.2&#10;&#9;&#9;&#9;c-2.6-7-2.5-14.3-0.2-21.9c5.4,3,8.3,8.3,8.7,15.9c3.2-10.2,10.3-14.5,19.7-14.9c0.1,6.1-1.5,11.1-5.5,14.5&#10;&#9;&#9;&#9;c4.7-3.2,10-4.3,16.1-3.4c-0.9,6.7-3.8,11.8-9.6,14.5c8.1-2.7,16.4-3,25,0.9c-2.1,6.4-6.5,11.4-15.3,13.6&#10;&#9;&#9;&#9;c10.4-0.9,18.1,2.1,24.7,6.7c-4.3,5.1-10,7.5-17.4,7.2c4.1,0.9,5.9,3.1,7,5.1c4.7-0.4,7.9,1.8,10.6,4.8&#10;&#9;&#9;&#9;C1388.5,980,1330.7,980,1273,980L1273,980z"/>
	</g>
</g>
<g>
	<path fill-rule="evenodd" clip-rule="evenodd" fill="#FFFFFF" d="M0,89.5c14.7,22.9,43.5,26,62,22.9c1.2,27.7,19.3,46.8,45.2,49.4&#10;&#9;&#9;c13,13.9,39.7,14,53.7,1.4c2.3,9.1,8.4,17,16.5,20.1c9.6,8.6,29.4,8.5,42.2,2.1c-3.5,7-1.5,15.6,5,17.2&#10;&#9;&#9;c14.3,25.2,71.8,12.5,85.9-2.9c3.7,12.7,20.7,18.5,29.3,13.6c12.7,7.4,31,1.3,36.5-7.9c5.1,15.9,24.2,22.5,36.5,17.2&#10;&#9;&#9;c19.4,11.4,51.3-0.2,58.7-11.5c10.6,12.4,35.6,17.7,51.5,10.7c18.8,5.4,46.1-0.5,53-13.6c8.8,5.9,29,7.4,36.5,3.6&#10;&#9;&#9;c8.1,10.4,23.9,20.9,36.5,20.8c-7.3,5-8.5,14.3-6.4,21.5c-3.5,15.1,9.3,21.3,17.9,18.6c22.3,3.9,55.7,1.9,67.9-3.6&#10;&#9;&#9;c1.6,5.3,8.1,11.5,14.3,13.6c9.5,3.2,24.6,1.6,33.1-3.7c3-4.5-2.7-12.5-13.8-8.4c-3.4-1.3-9.8,1.4-12.9,6.3&#10;&#9;&#9;c0.1-5.3-0.8-10-7.9-12.7c1.1-9.2-3.8-15.8-10-20.1c-7.8-9.9-21-13.8-31.5-8.6c-9.6-6.8-26.7-3.8-31.5,1.4&#10;&#9;&#9;c-2.3-8.8-11.8-16.5-21.5-19.4c0.8-13.4-6-21.2-15-24.3c-16.2-13.2-42.9-9.5-53.7,0.7c-17.2-13.8-45.2-23.4-68.7-27.9&#10;&#9;&#9;c21.4,1.5,33.4-15,26.4-25.8c-2.4-14-19.7-24.1-35.1-24.3c6.2-0.5,11.4-11.4,8.6-17.9c12.5,7.3,28.3,5.7,40.1-0.7&#10;&#9;&#9;c17.5-2.4,16.4-19.5,10-26.5c-9.6-38.6-47.3-47-63.7-32.2c-23.8-16.9-63.4-8.9-69.4,13.6c-8.3-19.5-46.5-22.9-53.7-10.7&#10;&#9;&#9;c-20.2-5.1-27.5,10.6-27.2,23.6c-15.3-30.4-52.2-33.3-74.4-25.1c3.3-7,2.7-15.1-1.4-19.3c13.3,7.4,38.6,9.9,49.4,0.6&#10;&#9;&#9;C330.5,27.2,344.4,11,337.7,0H0V89.5z"/>
	<path fill-rule="evenodd" clip-rule="evenodd" fill="#FFFFFF" d="M1750,261.3c-7.4-21-23.5-30.8-49.1-30.2&#10;&#9;&#9;c-9.8-3.3-16.6-0.4-20,9.6c-4.4-5.4-9.2-5.5-14.6,0c-29.6-11.6-50.5-4.3-64.4,18.5c-8.9-17.8-23.1-29-53.1-20.7&#10;&#9;&#9;c2.3-12.3-3-20.1-18.4-22.1c-14.2-6.1-24.6-1.5-31,14c-0.5-13.3-7.4-21.9-20.6-25.8c-17-11.3-33.4-9.8-49.4,5.9&#10;&#9;&#9;c-12.7,14.5-13.6,29,2.2,43.6c-10.1-4.2-17.1,0.9-22.9,9.6c-7.6,16.6-4.2,29.9,17.7,37.6c-19.7,2.8-31.9,12.1-32.4,31.7&#10;&#9;&#9;c-11.4-16.5-24.5-17.8-38.3-12.5c-15.5,4.9-20.4,14.7-14.8,29.5c-11.5-13.1-22.4-16-32.4-8.9c-10.7-0.6-16.8,4.1-16.2,16.2&#10;&#9;&#9;c-7.7-11.4-18.9-16.1-33.9-13.3c0.9-7.4-1.4-12.8-7.4-16.2c-16.7-4.5-32.5-1.6-47.2,9.6c-12.1-13.5-27.2-22.1-50.1-16.9&#10;&#9;&#9;c-4-10-12-15.1-24.4-14.8c-15.9-4.6-27.1,0.8-34.7,14c-7-5.2-14.4-6.3-22.8,0.8c-5-7-11.7-9.3-20.6-5.9c-7.6-2-13.1,0.3-16.2,8.1&#10;&#9;&#9;c-5.9,6-1.7,8.7,5.9,10.3c8.5,3.2,15.4,0,21.4-6.7c7.3,6,15.5,5.6,24.3,0.7c-3.2,6-1.5,11,3.7,15.5c10.4,6.4,19.3,5.1,27.3-2.2&#10;&#9;&#9;c-1.7,7,1,11.4,6.6,14c20.4,16.4,41.6,14.6,63.4,0c5.2-0.9,7.3-3.5,5.2-8.9c11.8,4.3,21.9,2.4,31.7-0.7&#10;&#9;&#9;c3.7,10.7,12.2,12.3,21.4,12.5c6,5.8,13.2,3.6,20.6,0c-15.7,9.6-22.4,20.7-19.9,33.2c-13.3,2.8-17.6,10-14.7,20.7&#10;&#9;&#9;c-2.6,15.4,5,23.5,28,20.7c15.1,9.4,26.2,4.9,35.4-5.9c23.8,21.1,52.2,19.5,83.3,5.1c17.8,0.6,28.1-7,28.8-25.1&#10;&#9;&#9;c7.2-5.3,10-12.7,3-24.4c13.1,6.6,24.5,3.7,34.6-7.4c1.9-16.7-5.8-28.8-20.6-37.6c21.9,5.6,41,0,57.5-15.5&#10;&#9;&#9;c-2.7,14.2,2.2,22.2,11.8,26.5c17.6,18.5,38.3,21.1,61.2,12.6c0.8,15.9,8.5,24.2,23.6,24.3c1.7,1.6,3.5,1,5.2,0&#10;&#9;&#9;c7.9,16.4,23.8,14.4,43.5,3.7c0.6,22.4,11.2,31.2,33.9,23.6c17.4,4.8,28.6,1.1,30.2-16.2c17.4,9.7,31.7,5.3,43.7-9.6&#10;&#9;&#9;c2.1,9.3,7.8,14.3,15.1,17.7V261.3z"/>
	<path fill-rule="evenodd" clip-rule="evenodd" fill="#FFFFFF" d="M178.6,420.4c15.5-23.6,37.6-26,64.8-12c-2.5-9.2-1.2-17,9.2-21.3&#10;&#9;&#9;c24.7-15.7,39.5-6,50,14.8c3.3-14.4,14.3-17.2,28.7-14.8c15.3-3.2,25.4,3.8,25.9,29.6c18.2-8.4,36.4-7.6,54.6,3.7&#10;&#9;&#9;c1-7.5,1.6-15.2,13.9-13.9c11.9-5.8,19.3-2.8,21.3,11.1c-2.9,10.8-13.2,12-26.6,9.2c3,15.1-7.2,33.4-22.5,33.4&#10;&#9;&#9;c-30.9,17.3-57.9,9-83.3-10.2c0.3,18.4-19.2,36.6-44.4,32.4c-33.4-0.3-38.6-40.6-24.7-55.7c-12.5,8.5-24.9,11.6-37.4,4.7&#10;&#9;&#9;C193.7,435.7,182.7,434,178.6,420.4L178.6,420.4z"/>
	<path fill-rule="evenodd" clip-rule="evenodd" fill="#FFFFFF" d="M557.1,362.5c-6.3,9.7-15.4,10.7-26.6,4.9c1,3.8,0.5,7-3.8,8.7&#10;&#9;&#9;c-10.1,6.4-16.2,2.5-20.5-6.1c-1.3,5.9-5.8,7-11.8,6.1c-6.3,1.3-10.4-1.5-10.6-12.1c-7.5,3.4-14.9,3.2-22.4-1.5&#10;&#9;&#9;c-0.4,3-0.7,6.2-5.7,5.7c-4.9,2.4-7.9,1.2-8.7-4.6c1.2-4.4,5.4-4.9,10.9-3.7c-1.2-6.2,2.9-13.7,9.2-13.7&#10;&#9;&#9;c12.7-7.1,23.8-3.7,34.1,4.2c-0.1-7.5,7.9-15,18.2-13.3c13.7,0.1,15.8,16.7,10.1,22.8c5.1-3.5,10.2-4.8,15.3-1.9&#10;&#9;&#9;C550.9,356.1,555.4,356.8,557.1,362.5L557.1,362.5z"/>
</g>
<g>
	<path fill-rule="evenodd" clip-rule="evenodd" fill="#55BA63" d="M1442.3,568c-11.2,11.9-21.8,26.7-21.4,47.2&#10;&#9;&#9;c-10.9,12.5-14.7,27.4-11.2,44.9c-7.5,17.2-4.1,30.6,6.2,41.7c-9.9,26.6,0.7,42.3,15.7,55.6c-3.5,11.7,0,19,8.2,23.3&#10;&#9;&#9;c-1.4,10.7,0.8,21.4-0.6,32.4c5.5,0,11,0,16.5,0c0.3-10-2.9-19.8-2.7-29.6c10.3-6,13.9-18.6,12.7-35.7&#10;&#9;&#9;c14.3-13.6,16.9-31.3,9.5-52.3c9.1-17.6,10.1-35.2,3.1-52.8c2.7-13.2-6.9-33.1-18.6-37C1460.8,593.6,1456,581,1442.3,568&#10;&#9;&#9;L1442.3,568z"/>
	<path fill-rule="evenodd" clip-rule="evenodd" fill="#7FCC68" d="M1442.3,568c-11.2,11.9-21.8,26.7-21.4,47.2&#10;&#9;&#9;c-10.9,12.5-14.7,27.4-11.2,44.9c-7.5,17.2-4.1,30.6,6.2,41.7c-9.9,26.6,0.7,42.3,15.7,55.6c-3.5,11.7,0,19,8.2,23.3&#10;&#9;&#9;c-1.4,10.7,0.8,21.4-0.6,32.4c5.5,0,2.8,0,8.3,0c0.3-10-2.9-19.8-2.7-29.6c10.3-6,4.1-20,3-37.1c14.2-13.7,15.5-29.5,8.1-50.5&#10;&#9;&#9;c9.1-17.6,12.8-33.8,5.8-51.4c2.7-13.2,1.4-34.9-10.3-38.9C1452.5,593.6,1452.5,579.8,1442.3,568L1442.3,568z"/>
</g>
<g>
	<path fill-rule="evenodd" clip-rule="evenodd" fill="#55BA63" d="M1521,568c-11.2,11.9-18.3,26.7-17.9,47.2&#10;&#9;&#9;c-10.9,12.5-14.7,27.4-11.2,44.9c-7.5,17.2-4.1,30.6,6.2,41.7c-9.9,26.6,0.7,42.3,15.7,55.6c-3.5,11.7,0,19,8.2,23.3&#10;&#9;&#9;c-1.4,10.7-2.7,21.4-4.1,32.4c5.5,0,11,0,16.5,0c0.3-10,0.6-19.8,0.8-29.6c10.3-6,13.9-18.6,12.7-35.7&#10;&#9;&#9;c14.3-13.6,16.8-31.3,9.5-52.3c9.1-17.6,10.1-35.2,3.1-52.8c2.7-13.2-6.9-33.1-18.6-37C1543,593.6,1534.7,581,1521,568L1521,568z"/>
	<path fill-rule="evenodd" clip-rule="evenodd" fill="#7FCC68" d="M1521,568c-11.2,11.9-18.3,26.7-17.9,47.2&#10;&#9;&#9;c-10.9,12.5-14.7,27.4-11.2,44.9c-7.5,17.2-4.1,30.6,6.2,41.7c-9.9,26.6,0.7,42.3,15.7,55.6c-3.5,11.7,0,19,8.2,23.3&#10;&#9;&#9;c-1.4,10.7-2.7,21.4-4.1,32.4c5.5,0,2.8,0,8.3,0c0.3-10,0.6-19.8,0.8-29.6c10.3-6,14.3-23.7,2.1-36.6c14.3-13.7,15.9-35.5,4.9-50.1&#10;&#9;&#9;c9.1-17.6,9.2-35.3-0.6-51.9c5.9-10.9,3.5-30.8-8.2-34.8C1528,599.9,1528.7,585.2,1521,568L1521,568z"/>
</g>
<g>
	<path fill-rule="evenodd" clip-rule="evenodd" fill="#55BA63" d="M1597.9,568c12.1,11.9,20.5,26.7,21.7,47.2&#10;&#9;&#9;c11.9,12.5,16.9,27.4,14.8,44.9c8.9,17.2,6.6,30.6-2.8,41.7c12,26.6,2.8,42.3-11.2,55.6c4.4,11.7,1.5,19-6.3,23.3&#10;&#9;&#9;c2.2,10.7,4.5,21.4,6.7,32.4c-5.5,0-11,0-16.5,0c-1.1-10-2.1-19.8-3.2-29.6c-10.7-6-15.4-18.6-15.6-35.7&#10;&#9;&#9;c-15.4-13.6-19.4-31.3-13.7-52.3c-10.5-17.6-12.9-35.2-7.3-52.8c-3.7-13.2,4.3-33.1,15.6-37C1578,593.6,1585.2,581,1597.9,568&#10;&#9;&#9;L1597.9,568z"/>
	<path fill-rule="evenodd" clip-rule="evenodd" fill="#7FCC68" d="M1597.9,568c6.9,20.7,9.9,32.7,5.6,48.6&#10;&#9;&#9;c11.9,12.5,13.7,29.8,9.3,47.7c8.9,17.2-0.4,26.5-9.8,37.5c24.5,11.3,23.1,42.3,9.2,55.6c4.4,11.7,1.5,19-6.4,23.3&#10;&#9;&#9;c2.2,10.7,4.5,21.4,6.7,32.4c-5.5,0-2.7,0-8.2,0c-1.1-10-2.1-19.8-3.2-29.6c-10.7-6-15.4-18.6-15.6-35.7&#10;&#9;&#9;c-15.4-13.6-19.4-31.3-13.7-52.3c-10.5-17.6-12.9-35.2-7.3-52.8c-3.7-13.2,4.3-33.1,15.6-37C1578,593.6,1585.2,581,1597.9,568&#10;&#9;&#9;L1597.9,568z"/>
</g>
<g>
	<path fill-rule="evenodd" clip-rule="evenodd" fill="#55BA63" d="M1666.3,568c-10.1,11.9-16,26.7-13.9,47.2&#10;&#9;&#9;c-9.8,12.5-12.4,27.4-7.4,44.9c-6.1,17.2-1.5,30.6,9.7,41.7c-7.6,26.6,4.2,42.3,20.4,55.6c-2.5,11.7,1.6,19,10.2,23.3&#10;&#9;&#9;c-0.5,10.7-0.9,21.4-1.4,32.4c5.5,0,11,0,16.5,0c-0.6-10-1.1-19.8-1.6-29.6c9.8-6,12.3-18.6,9.7-35.7c13.1-13.6,14.2-31.3,5.1-52.3&#10;&#9;&#9;c7.6-17.6,7.1-35.2-1.4-52.8c1.5-13.2-9.7-33.1-21.8-37C1690.5,593.6,1681.1,581,1666.3,568L1666.3,568z"/>
	<path fill-rule="evenodd" clip-rule="evenodd" fill="#7FCC68" d="M1666.3,568c-10.1,11.9-16,26.7-13.9,47.2&#10;&#9;&#9;c-9.8,12.5-12.4,27.4-7.4,44.9c-6.1,17.2-1.5,30.6,9.7,41.7c-7.6,26.6,4.2,42.3,20.4,55.6c-2.5,11.7,1.6,19,10.2,23.3&#10;&#9;&#9;c-0.5,10.7-0.9,21.4-1.4,32.4c5.5,0,2.8,0,8.3,0c-0.6-10-1.1-19.8-1.7-29.6c9.8-6,12.3-18.6,9.7-35.7c13.1-13.6,5.4-41-15.3-49.1&#10;&#9;&#9;c7.6-17.6,7.6-36.1-4.6-50c6.6-10.9,2.8-34.5-9.2-38.4C1671.1,598.3,1674.4,584.2,1666.3,568L1666.3,568z"/>
</g>
<g>
	<path fill-rule="evenodd" clip-rule="evenodd" fill="#7FCC68" d="M773.3,813c-3.6,0-6.4-4.2-7-8.5c2.8-0.9,5,0,7.2,1.6&#10;&#9;&#9;c-1.7-2.4-2.3-5.2-1.9-8.4c2.2,0.1,4,1,5,3.5c-1-3.8-0.2-7.4,2.1-10.8c3.6,0.2,5.3,1.9,6.7,3.7c-1.2-1.9-2.1-4-2.2-6.7&#10;&#9;&#9;c2.3,0.2,4.1,1.5,5.5,3.4c-1.2-2.8-0.9-5.6,0.7-8.3c3.6,1.2,5.3,4,6.2,7.5c0.4-2.5,2-4.5,4.6-6.2c0.7,2.2,0.7,4.5-0.1,6.8&#10;&#9;&#9;c2.2-1.9,4.7-2.4,7.4-2c0,2.2-0.2,4.4-2.1,6.2c2.5-0.4,5,0,7.5,1.5c-0.6,1.5-1.6,2.7-3.1,3.4c3.1-0.5,6.2,0,9.1,1.3&#10;&#9;&#9;c-1.8-1.2-2.9-2.7-3.3-4.8c2.3-0.4,4.4,0.4,6.5,1.8c-2.5-2.6-2.7-5.9-1.5-9.6c3.4,0.5,5.1,2,6.1,4c-1.2-3.4-1.2-7-0.1-10.7&#10;&#9;&#9;c2.6,1.5,4,4.1,4.2,7.7c1.6-4.9,5-7,9.6-7.2c0.1,2.9-0.7,5.4-2.7,7c2.3-1.6,4.9-2.1,7.9-1.6c-0.5,3.3-1.9,5.7-4.7,7&#10;&#9;&#9;c4-1.3,8-1.5,12.2,0.5c-1,3.1-3.1,5.5-7.5,6.6c1.6-0.1,3.1-0.1,4.5,0.1c0.2-0.9,0.7-1.8,1.3-2.7c2.2,0.1,3.2,1.2,4.1,2.3&#10;&#9;&#9;c-0.8-1.1-1.3-2.5-1.4-4.1c1.5,0.1,2.5,0.9,3.4,2.1c-0.7-1.7-0.6-3.4,0.5-5.1c2.2,0.7,3.2,2.4,3.8,4.6c0.2-1.5,1.2-2.8,2.8-3.8&#10;&#9;&#9;c0.4,1.3,0.4,2.7-0.1,4.1c1.3-1.2,2.8-1.5,4.5-1.2c0,1.4-0.1,2.7-1.3,3.8c1.5-0.2,3.1,0,4.6,0.9c-0.3,0.9-1,1.6-1.9,2.1&#10;&#9;&#9;c1.9-0.3,3.8,0,5.6,0.8c-1.1-0.7-1.8-1.6-2-2.9c1.4-0.2,2.7,0.2,4,1.1c-1.5-1.6-1.6-3.6-0.9-5.9c2.1,0.3,3.1,1.2,3.7,2.4&#10;&#9;&#9;c-0.8-2.1-0.7-4.2-0.1-6.5c1.6,0.9,2.5,2.5,2.6,4.7c0.9-3,3-4.3,5.8-4.4c0,1.8-0.4,3.3-1.6,4.3c1.4-1,3-1.3,4.8-1&#10;&#9;&#9;c-0.2,2-1.1,3.5-2.9,4.3c1-0.4,2-0.6,3-0.6c-0.2-0.4-0.3-0.8-0.5-1.2c3-1.4,6-1.3,8.9-0.4c-2.1-0.9-3.1-2.8-3.4-5.1&#10;&#9;&#9;c2.2-0.4,4.1,0.1,5.7,1.2c-1.4-1.2-2-3-2-5.1c3.4,0.2,5.8,1.7,7,5.3c0.1-2.7,1.2-4.6,3.1-5.6c0.8,2.7,0.8,5.3-0.1,7.7&#10;&#9;&#9;c0.7-1.4,2-2.5,4.4-2.9c0.8,2.7,0.7,5.1-1.1,7c1.5-1,3-1.5,4.7-1.3c-0.2,1.5-1.1,2.7-2.4,3.5c2.1-1,4.3-1.3,6.6-0.9&#10;&#9;&#9;c-1.2-0.6-1.9-1.4-2.3-2.5c1.8-1.1,3.6-1.4,5.5-1.1c-1.4-1.3-1.6-2.9-1.5-4.5c2-0.3,3.8,0,5.4,1.4c-0.6-1.7-0.6-3.4-0.1-4.9&#10;&#9;&#9;c1.9,1.2,3,2.7,3.3,4.5c0.6-2.6,1.9-4.6,4.5-5.5c1.2,2,1.3,4,0.5,6.1c1-1.4,2.3-2.3,4-2.5c-0.1,1.2-0.3,2.3-0.8,3.3&#10;&#9;&#9;c0.2,0,0.4,0,0.6,0c0.8-0.7,1.9-1.1,3.4-1.2c0.2,0.4,0.5,0.7,0.6,1.1c0.1-2.5,1-4.9,2.6-7.2c3.6,0.2,5.2,1.9,6.6,3.7&#10;&#9;&#9;c-1.2-1.9-2.1-4-2.2-6.7c2.3,0.2,4.1,1.5,5.5,3.4c-1.2-2.8-0.9-5.6,0.7-8.3c3.6,1.2,5.3,4,6.2,7.5c0.4-2.5,2-4.5,4.6-6.2&#10;&#9;&#9;c0.7,2.2,0.7,4.5-0.1,6.8c2.2-1.9,4.7-2.4,7.4-2c0,2.2-0.2,4.4-2.1,6.2c2.5-0.4,5,0,7.5,1.5c-0.6,1.5-1.6,2.7-3.1,3.4&#10;&#9;&#9;c3.1-0.5,6.2,0,9.1,1.3c-1.8-1.2-2.9-2.6-3.3-4.7c2.1-0.4,4.1,0.6,5.9,1.6c0.1,0,0.1,0,0.2,0c-2.2-2-2.3-5.8-1.3-9.4&#10;&#9;&#9;c3.4,0.5,5.1,2,6.1,3.9c-1.2-3.4-1.2-7-0.1-10.7c2.6,1.5,4.1,4,4.2,7.7c1.6-4.9,5-7,9.6-7.3c0,0.3,0,0.6,0,0.9&#10;&#9;&#9;c1.9,0.9,3.1,2.4,4,4.3c0.4,0,0.8,0.1,1.2,0.1c-0.1,0.7-0.2,1.4-0.4,2c0,0.1,0.1,0.3,0.1,0.5c0.5-2.5,2-4.5,4.6-6.2&#10;&#9;&#9;c0.7,2.2,0.7,4.5-0.1,6.8c2.2-1.9,4.7-2.4,7.4-2c0,2.2-0.3,4.4-2.1,6.2c2.5-0.4,5,0,7.5,1.5c-0.6,1.5-1.6,2.7-3.1,3.4&#10;&#9;&#9;c3.1-0.5,6.2,0,9.1,1.3c-1.8-1.2-2.9-2.7-3.3-4.8c2.3-0.4,4.4,0.4,6.4,1.8c-2.4-2.6-2.7-5.9-1.5-9.6c3.4,0.5,5.1,2,6.1,4&#10;&#9;&#9;c-1.3-3.4-1.2-7-0.1-10.7c2.6,1.5,4,4.1,4.2,7.7c1.6-4.9,5-7,9.6-7.2c0,2.9-0.7,5.4-2.7,7c0.8-0.6,1.7-1,2.7-1.3c0.5-1,1-2,1.7-3&#10;&#9;&#9;c4.5,0.2,6.5,2.3,8.3,4.7c-1.5-2.3-2.6-5-2.8-8.3c2.9,0.3,5.1,1.9,6.9,4.2c-1.4-3.5-1.2-6.9,0.9-10.4c4.4,1.5,6.6,4.9,7.7,9.3&#10;&#9;&#9;c0.5-3.1,2.4-5.6,5.7-7.7c0.9,2.7,0.9,5.5-0.1,8.5c2.7-2.4,5.8-3,9.2-2.5c0,2.8-0.3,5.4-2.6,7.7c3.1-0.5,6.2-0.1,9.3,1.9&#10;&#9;&#9;c-0.7,1.9-2,3.3-3.9,4.2c3.9-0.6,7.7-0.1,11.4,1.6c-2.2-1.4-3.7-3.4-4.1-6c2.9-0.5,5.5,0.5,8,2.2c-3-3.2-3.3-7.3-1.9-12&#10;&#9;&#9;c4.2,0.7,6.3,2.5,7.6,5c-1.6-4.2-1.5-8.6-0.2-13.3c3.3,1.9,5,5,5.2,9.6c2-6.1,6.2-8.8,12-9c0.1,3.7-0.9,6.7-3.4,8.8&#10;&#9;&#9;c2.8-2,6.1-2.7,9.8-2.1c-0.5,4.1-2.3,7.1-5.8,8.8c4.9-1.6,9.9-1.8,15.1,0.6c-1.3,3.9-3.9,6.9-9.3,8.2c3.4-0.3,6.3,0.1,8.8,0.9&#10;&#9;&#9;c0.2-0.2,0.3-0.5,0.5-0.8c2.2,0.1,3.2,1.2,4.1,2.3c-0.8-1.1-1.3-2.5-1.4-4.1c1.4,0.1,2.5,0.9,3.4,2.1c-0.7-1.7-0.6-3.4,0.4-5.1&#10;&#9;&#9;c2.2,0.7,3.3,2.4,3.8,4.6c0.3-1.5,1.2-2.8,2.8-3.8c0.5,1.3,0.4,2.7-0.1,4.1c1.3-1.2,2.8-1.5,4.5-1.2c0,1.4-0.2,2.7-1.3,3.8&#10;&#9;&#9;c1.5-0.2,3,0,4.5,0.9c-0.3,0.9-1,1.6-1.9,2.1c1.9-0.3,3.8,0,5.6,0.8c-1.1-0.7-1.8-1.6-2-2.9c1.4-0.2,2.7,0.2,4,1.1&#10;&#9;&#9;c-1.5-1.6-1.6-3.6-0.9-5.9c2.1,0.3,3.1,1.2,3.7,2.4c-0.7-2.1-0.7-4.2-0.1-6.5c1.6,0.9,2.5,2.5,2.6,4.7c0.9-3,3-4.3,5.8-4.4&#10;&#9;&#9;c0,1.8-0.4,3.3-1.6,4.3c1.4-1,3-1.3,4.8-1c-0.2,2-1.1,3.5-2.8,4.3c2.4-0.8,4.9-0.9,7.4,0.3c-0.6,1.9-1.9,3.4-4.5,4&#10;&#9;&#9;c3.1-0.3,5.4,0.6,7.3,2c-1.3,1.5-3,2.2-5.1,2.2c1.2,0.2,1.7,0.8,2.1,1.4c1.4-0.1,2.3,1.4,3.1,1.4C1058.9,813,916.1,813,773.3,813&#10;&#9;&#9;L773.3,813z"/>
	<path fill-rule="evenodd" clip-rule="evenodd" fill="#7FCC68" d="M1222.5,813c-2.2,0-3.9-2.6-4.3-5.2c1.7-0.6,3.1,0,4.4,1&#10;&#9;&#9;c-1-1.5-1.4-3.2-1.2-5.1c1.3,0.1,2.4,0.6,3.1,2.1c-0.6-2.3-0.1-4.5,1.3-6.6c2.2,0.1,3.2,1.2,4.1,2.3c-0.8-1.1-1.3-2.5-1.4-4.1&#10;&#9;&#9;c1.4,0.1,2.5,0.9,3.4,2.1c-0.7-1.7-0.6-3.4,0.5-5.1c2.2,0.7,3.2,2.4,3.8,4.6c0.2-1.5,1.2-2.8,2.8-3.8c0.4,1.3,0.4,2.7-0.1,4.1&#10;&#9;&#9;c1.3-1.2,2.9-1.5,4.5-1.2c0,1.4-0.1,2.7-1.3,3.8c1.5-0.2,3.1,0,4.6,0.9c-0.3,0.9-1,1.6-1.9,2.1c1.9-0.3,3.8,0,5.6,0.8&#10;&#9;&#9;c-1.1-0.7-1.8-1.6-2-2.9c1.4-0.2,2.7,0.2,3.9,1.1c-1.5-1.6-1.6-3.6-0.9-5.9c2.1,0.3,3.1,1.2,3.7,2.4c-0.8-2.1-0.7-4.2-0.1-6.5&#10;&#9;&#9;c1.6,0.9,2.4,2.5,2.6,4.7c0.9-3,3-4.3,5.8-4.4c0,1.8-0.4,3.3-1.6,4.3c0.8-0.5,1.6-0.9,2.4-1c-0.1-1.1,0-2.3,0.1-3.4&#10;&#9;&#9;c2.7,0.1,4.9,1.3,6.3,4.4c-1.3-4.8-0.2-9.2,2.6-13.4c4.5,0.2,6.5,2.3,8.3,4.7c-1.5-2.3-2.6-5-2.8-8.3c2.9,0.3,5.1,1.9,6.9,4.2&#10;&#9;&#9;c-1.4-3.5-1.2-6.9,0.9-10.4c4.4,1.5,6.6,4.9,7.7,9.3c0.5-3.1,2.4-5.6,5.7-7.7c0.9,2.7,0.9,5.5-0.1,8.5c2.7-2.4,5.8-3,9.2-2.5&#10;&#9;&#9;c0,2.8-0.3,5.4-2.6,7.7c3.1-0.5,6.2-0.1,9.3,1.9c-0.7,1.9-2,3.3-3.9,4.2c3.9-0.6,7.7-0.1,11.4,1.6c-2.2-1.4-3.7-3.4-4.1-6&#10;&#9;&#9;c2.9-0.5,5.5,0.5,8,2.2c-3-3.2-3.3-7.3-1.9-12c4.2,0.7,6.3,2.5,7.6,5c-1.6-4.2-1.5-8.6-0.1-13.3c3.2,1.9,5,5,5.2,9.6&#10;&#9;&#9;c2-6.1,6.2-8.8,12-9c0.1,3.7-0.9,6.7-3.4,8.8c2.8-2,6.1-2.7,9.8-2.1c-0.5,4.1-2.3,7.1-5.8,8.8c4.9-1.6,9.9-1.8,15.1,0.6&#10;&#9;&#9;c-1.3,3.9-3.9,6.9-9.3,8.2c6.3-0.6,10.9,1.3,14.9,4c-2.6,3-6.1,4.5-10.5,4.4c2.5,0.5,3.6,1.7,4.2,2.8c2.8-0.2,4.8,1.7,6.4,2.7&#10;&#9;&#9;C1321.6,813,1272,813,1222.5,813L1222.5,813z"/>
	<path fill-rule="evenodd" clip-rule="evenodd" fill="#7FCC68" d="M1415.3,813c-3.6-1-6.4-4.2-7-8.5c2.7-0.9,5,0,7.1,1.6&#10;&#9;&#9;c-1.7-2.4-2.2-5.2-1.9-8.4c2.2,0.1,4,1,5,3.5c-1-3.8-0.1-7.4,2.1-10.8c3.6,0.2,5.2,1.9,6.7,3.7c-1.3-1.9-2.1-4-2.2-6.7&#10;&#9;&#9;c2.3,0.2,4.1,1.5,5.5,3.4c-1.1-2.8-0.9-5.6,0.7-8.3c3.5,1.2,5.3,4,6.2,7.5c0.4-2.5,2-4.5,4.6-6.2c0.7,2.2,0.7,4.5-0.1,6.8&#10;&#9;&#9;c2.2-1.9,4.7-2.4,7.4-2c0,2.2-0.3,4.4-2.1,6.2c2.5-0.4,5,0,7.5,1.5c-0.6,1.5-1.6,2.7-3.2,3.4c3.1-0.5,6.2,0,9.1,1.3&#10;&#9;&#9;c-1.7-1.2-2.9-2.7-3.3-4.8c2.3-0.4,4.4,0.4,6.4,1.8c-2.4-2.6-2.7-5.9-1.5-9.6c3.4,0.5,5.1,2,6.1,4c-1.3-3.4-1.2-7-0.1-10.7&#10;&#9;&#9;c2.6,1.5,4.1,4.1,4.2,7.7c1.6-4.9,5-7,9.6-7.2c0,2.9-0.7,5.4-2.7,7c2.2-1.6,4.9-2.1,7.8-1.6c-0.4,3.3-1.8,5.7-4.7,7&#10;&#9;&#9;c4-1.3,8-1.5,12.2,0.5c-1,3.1-3.1,5.5-7.5,6.6c1.6-0.1,3.1-0.1,4.5,0.1c0.2-0.9,0.7-1.8,1.3-2.7c2.2,0.1,3.2,1.2,4.1,2.3&#10;&#9;&#9;c-0.8-1.1-1.3-2.5-1.4-4.1c1.4,0.1,2.5,0.9,3.4,2.1c-0.7-1.7-0.6-3.4,0.4-5.1c2.2,0.7,3.3,2.4,3.8,4.6c0.3-1.5,1.2-2.8,2.8-3.8&#10;&#9;&#9;c0.5,1.3,0.4,2.7-0.1,4.1c1.3-1.2,2.8-1.5,4.5-1.2c0,1.4-0.2,2.7-1.3,3.8c1.5-0.2,3,0,4.5,0.9c-0.3,0.9-1,1.6-1.9,2.1&#10;&#9;&#9;c1.9-0.3,3.8,0,5.6,0.8c-1.1-0.7-1.8-1.6-2-2.9c1.4-0.2,2.7,0.2,4,1.1c-1.5-1.6-1.6-3.6-0.9-5.9c2.1,0.3,3.1,1.2,3.7,2.4&#10;&#9;&#9;c-0.7-2.1-0.7-4.2-0.1-6.5c1.6,0.9,2.5,2.5,2.6,4.7c0.9-3,3-4.3,5.8-4.4c0,1.8-0.4,3.3-1.6,4.3c1.4-1,3-1.3,4.8-1&#10;&#9;&#9;c-0.2,2-1.1,3.5-2.8,4.3c1-0.4,2-0.6,3-0.6c-0.2-0.4-0.3-0.8-0.5-1.2c3-1.4,6-1.3,8.9-0.4c-2.1-0.9-3.1-2.8-3.4-5.1&#10;&#9;&#9;c2.1-0.4,4.1,0.1,5.7,1.2c-1.4-1.2-2-3-2-5.1c3.4,0.2,5.8,1.7,7,5.3c0.1-2.7,1.2-4.6,3.1-5.6c0.8,2.7,0.8,5.3-0.1,7.7&#10;&#9;&#9;c0.7-1.4,2-2.5,4.4-2.9c0.8,2.7,0.7,5.1-1.1,7c1.5-1,3-1.5,4.7-1.3c-0.2,1.5-1.1,2.7-2.4,3.5c2.1-1,4.4-1.3,6.6-0.9&#10;&#9;&#9;c-1.1-0.6-1.9-1.4-2.3-2.5c1.8-1.1,3.6-1.4,5.5-1.1c-1.3-1.3-1.5-2.9-1.5-4.5c2-0.3,3.8,0,5.4,1.4c-0.6-1.7-0.6-3.4-0.1-4.9&#10;&#9;&#9;c1.9,1.2,3,2.7,3.3,4.5c0.7-2.6,1.9-4.6,4.5-5.5c1.2,2,1.3,4,0.5,6.1c1-1.4,2.3-2.3,4-2.5c-0.1,1.2-0.3,2.3-0.8,3.3&#10;&#9;&#9;c0.2,0,0.4,0,0.6,0c0.8-0.7,1.9-1.1,3.4-1.2c0.2,0.4,0.5,0.7,0.7,1.1c0.1-2.5,1-4.9,2.5-7.2c3.6,0.2,5.2,1.9,6.7,3.7&#10;&#9;&#9;c-1.3-1.9-2.1-4-2.2-6.7c2.4,0.2,4.1,1.5,5.5,3.4c-1.2-2.8-1-5.6,0.7-8.3c3.5,1.2,5.3,4,6.2,7.5c0.5-2.5,2-4.5,4.6-6.2&#10;&#9;&#9;c0.7,2.2,0.7,4.5-0.1,6.8c2.2-1.9,4.7-2.4,7.4-2c0,2.2-0.3,4.4-2.1,6.2c2.5-0.4,5,0,7.5,1.5c-0.6,1.5-1.6,2.7-3.2,3.4&#10;&#9;&#9;c3.1-0.5,6.2,0,9.2,1.3c-1.8-1.2-3-2.6-3.3-4.7c2.1-0.4,4.1,0.6,5.9,1.6c0.1,0,0.1,0,0.2,0c-2.2-2-2.3-5.8-1.2-9.4&#10;&#9;&#9;c3.4,0.5,5.1,2,6.1,3.9c-1.3-3.4-1.2-7-0.1-10.7c2.6,1.5,4.1,4,4.2,7.7c1.6-4.9,5-7,9.6-7.3c0,0.3,0,0.6,0,0.9&#10;&#9;&#9;c1.9,0.9,3.1,2.4,4,4.3c0.4,0,0.8,0.1,1.2,0.1c-0.1,0.7-0.2,1.4-0.4,2c0,0.1,0.1,0.3,0.1,0.5c0.4-2.5,2-4.5,4.5-6.2&#10;&#9;&#9;c0.7,2.2,0.7,4.5-0.1,6.8c2.2-1.9,4.7-2.4,7.4-2c0,2.2-0.2,4.4-2.1,6.2c2.5-0.4,5,0,7.5,1.5c-0.6,1.5-1.6,2.7-3.1,3.4&#10;&#9;&#9;c3.1-0.5,6.2,0,9.1,1.3c-1.8-1.2-2.9-2.7-3.3-4.8c2.3-0.4,4.4,0.4,6.5,1.8c-2.5-2.6-2.7-5.9-1.5-9.6c3.4,0.5,5.1,2,6.1,4&#10;&#9;&#9;c-1.3-3.4-1.2-7-0.1-10.7c2.6,1.5,4,4.1,4.2,7.7c1.5-4.9,5-7,9.6-7.2c0.1,2.9-0.7,5.4-2.7,7c0.8-0.6,1.7-1,2.7-1.3c0.5-1,1-2,1.7-3&#10;&#9;&#9;c4.5,0.2,6.5,2.3,8.3,4.7c-1.6-2.3-2.6-5-2.8-8.3c2.9,0.3,5.1,1.9,6.9,4.2c-1.4-3.5-1.2-6.9,0.9-10.4c4.4,1.5,6.6,4.9,7.7,9.3&#10;&#9;&#9;c0.5-3.1,2.4-5.6,5.7-7.7c0.9,2.7,0.9,5.5-0.2,8.5c2.7-2.4,5.8-3,9.2-2.5c0,2.8-0.3,5.4-2.6,7.7c3.1-0.5,6.2-0.1,9.3,1.9&#10;&#9;&#9;c-0.7,1.9-1.9,3.3-3.8,4.2c2.7-0.4,5.7-0.3,8.1,0.4v16H1415.3z M1750,794.5c-1-0.7-0.6-1.4-0.7-2.2c0.2,0,0.7-0.1,0.7-0.1V794.5z"/>
	<path fill-rule="evenodd" clip-rule="evenodd" fill="#7FCC68" d="M334.8,813c3.6-1,6.4-4.2,7-8.5c-2.8-0.9-5,0-7.2,1.6&#10;&#9;&#9;c1.7-2.4,2.2-5.2,1.9-8.4c-2.2,0.1-4,1-5,3.5c1-3.8,0.1-7.4-2.1-10.8c-3.6,0.2-5.3,1.9-6.7,3.7c1.2-1.9,2.1-4,2.2-6.7&#10;&#9;&#9;c-2.3,0.2-4.1,1.5-5.5,3.4c1.2-2.8,0.9-5.6-0.7-8.3c-3.6,1.2-5.3,4-6.2,7.5c-0.4-2.5-2-4.5-4.6-6.2c-0.7,2.2-0.7,4.5,0.1,6.8&#10;&#9;&#9;c-2.2-1.9-4.7-2.4-7.4-2c0,2.2,0.2,4.4,2.1,6.2c-2.5-0.4-5,0-7.5,1.5c0.6,1.5,1.6,2.7,3.1,3.4c-3.1-0.5-6.2,0-9.1,1.3&#10;&#9;&#9;c1.8-1.2,2.9-2.7,3.3-4.8c-2.3-0.4-4.4,0.4-6.5,1.8c2.5-2.6,2.7-5.9,1.5-9.6c-3.4,0.5-5.1,2-6.1,4c1.2-3.4,1.2-7,0.1-10.7&#10;&#9;&#9;c-2.6,1.5-4.1,4.1-4.2,7.7c-1.6-4.9-5-7-9.6-7.2c-0.1,2.9,0.7,5.4,2.7,7c-2.3-1.6-4.9-2.1-7.9-1.6c0.5,3.3,1.9,5.7,4.7,7&#10;&#9;&#9;c-4-1.3-8-1.5-12.2,0.5c1,3.1,3.1,5.5,7.5,6.6c-1.6-0.1-3.1-0.1-4.5,0.1c-0.2-0.9-0.7-1.8-1.3-2.7c-2.2,0.1-3.2,1.2-4.1,2.3&#10;&#9;&#9;c0.7-1.1,1.3-2.5,1.3-4.1c-1.4,0.1-2.5,0.9-3.4,2.1c0.7-1.7,0.6-3.4-0.4-5.1c-2.2,0.7-3.2,2.4-3.8,4.6c-0.3-1.5-1.2-2.8-2.8-3.8&#10;&#9;&#9;c-0.4,1.3-0.4,2.7,0.1,4.1c-1.3-1.2-2.8-1.5-4.5-1.2c0,1.4,0.1,2.7,1.3,3.8c-1.5-0.2-3,0-4.5,0.9c0.3,0.9,1,1.6,1.9,2.1&#10;&#9;&#9;c-1.9-0.3-3.8,0-5.6,0.8c1.1-0.7,1.8-1.6,2-2.9c-1.4-0.2-2.7,0.2-4,1.1c1.5-1.6,1.6-3.6,0.9-5.9c-2.1,0.3-3.1,1.2-3.7,2.4&#10;&#9;&#9;c0.8-2.1,0.7-4.2,0.1-6.5c-1.6,0.9-2.5,2.5-2.6,4.7c-0.9-3-3-4.3-5.8-4.4c0,1.8,0.4,3.3,1.6,4.3c-1.4-1-3-1.3-4.8-1&#10;&#9;&#9;c0.2,2,1.1,3.5,2.9,4.3c-1-0.4-2-0.6-3-0.6c0.2-0.4,0.3-0.8,0.5-1.2c-3-1.4-6-1.3-8.9-0.4c2.1-0.9,3.1-2.8,3.4-5.1&#10;&#9;&#9;c-2.2-0.4-4.1,0.1-5.7,1.2c1.5-1.2,2-3,2-5.1c-3.3,0.2-5.8,1.7-7,5.3c-0.1-2.7-1.2-4.6-3.1-5.6c-0.8,2.7-0.8,5.3,0.1,7.7&#10;&#9;&#9;c-0.7-1.4-2-2.5-4.4-2.9c-0.8,2.7-0.7,5.1,1.1,7c-1.5-1-3-1.5-4.7-1.3c0.2,1.5,1.1,2.7,2.4,3.5c-2.1-1-4.3-1.3-6.6-0.9&#10;&#9;&#9;c1.2-0.6,1.9-1.4,2.3-2.5c-1.8-1.1-3.6-1.4-5.5-1.1c1.4-1.3,1.6-2.9,1.5-4.5c-2-0.3-3.8,0-5.4,1.4c0.6-1.7,0.6-3.4,0.1-4.9&#10;&#9;&#9;c-1.9,1.2-3,2.7-3.3,4.5c-0.7-2.6-1.9-4.6-4.5-5.5c-1.2,2-1.3,4-0.5,6.1c-1-1.4-2.3-2.3-4-2.5c0.1,1.2,0.3,2.3,0.8,3.3&#10;&#9;&#9;c-0.2,0-0.4,0-0.6,0c-0.8-0.7-1.9-1.1-3.4-1.2c-0.2,0.4-0.5,0.7-0.6,1.1c-0.1-2.5-1-4.9-2.6-7.2c-3.6,0.2-5.2,1.9-6.7,3.7&#10;&#9;&#9;c1.3-1.9,2.1-4,2.2-6.7c-2.3,0.2-4.1,1.5-5.5,3.4c1.1-2.8,0.9-5.6-0.7-8.3c-3.6,1.2-5.3,4-6.2,7.5c-0.4-2.5-2-4.5-4.6-6.2&#10;&#9;&#9;c-0.7,2.2-0.7,4.5,0.1,6.8c-2.2-1.9-4.7-2.4-7.4-2c0,2.2,0.2,4.4,2.1,6.2c-2.5-0.4-5,0-7.5,1.5c0.6,1.5,1.6,2.7,3.2,3.4&#10;&#9;&#9;c-3.1-0.5-6.2,0-9.1,1.3c1.7-1.2,2.9-2.6,3.3-4.7c-2.1-0.4-4.1,0.6-5.9,1.6c-0.1,0-0.1,0-0.2,0c2.2-2,2.3-5.8,1.3-9.4&#10;&#9;&#9;c-3.4,0.5-5.1,2-6.1,3.9c1.3-3.4,1.2-7,0.1-10.7c-2.6,1.5-4.1,4-4.2,7.7c-1.6-4.9-5-7-9.6-7.3c0,0.3,0,0.6,0,0.9&#10;&#9;&#9;c-1.9,0.9-3.1,2.4-4,4.3c-0.4,0-0.8,0.1-1.2,0.1c0.1,0.7,0.2,1.4,0.4,2c0,0.1-0.1,0.3-0.1,0.5c-0.4-2.5-1.9-4.5-4.5-6.2&#10;&#9;&#9;c-0.7,2.2-0.7,4.5,0.1,6.8c-2.2-1.9-4.7-2.4-7.4-2c0,2.2,0.3,4.4,2.1,6.2c-2.5-0.4-5,0-7.5,1.5c0.6,1.5,1.6,2.7,3.1,3.4&#10;&#9;&#9;c-3.1-0.5-6.2,0-9.1,1.3c1.8-1.2,2.9-2.7,3.3-4.8c-2.3-0.4-4.4,0.4-6.4,1.8c2.4-2.6,2.7-5.9,1.5-9.6c-3.4,0.5-5.1,2-6.1,4&#10;&#9;&#9;c1.3-3.4,1.2-7,0.1-10.7c-2.6,1.5-4,4.1-4.2,7.7c-1.6-4.9-5-7-9.6-7.2c-0.1,2.9,0.7,5.4,2.7,7c-0.8-0.6-1.7-1-2.7-1.3&#10;&#9;&#9;c-0.5-1-1-2-1.7-3c-4.5,0.2-6.5,2.3-8.3,4.7c1.5-2.3,2.6-5,2.8-8.3c-2.9,0.3-5.1,1.9-6.9,4.2c1.4-3.5,1.2-6.9-0.9-10.4&#10;&#9;&#9;c-4.4,1.5-6.6,4.9-7.7,9.3c-0.5-3.1-2.4-5.6-5.7-7.7c-0.9,2.7-0.9,5.5,0.1,8.5c-2.7-2.4-5.8-3-9.2-2.5c0,2.8,0.3,5.4,2.6,7.7&#10;&#9;&#9;c-3.1-0.5-6.2-0.1-9.3,1.9c0.7,1.9,1.8,3.3,3.7,4.2c-2.7-0.4-5.7-0.3-8.2,0.4v16H334.8z M0,794.5c1-0.7,0.6-1.4,0.7-2.2&#10;&#9;&#9;c-0.2,0,0.3-0.1-0.7-0.1V794.5z"/>
</g>

<g>
	<path d="M 1272.4000244140625 813 L 1279.5 676.4000244140625 L 1290.5999755859375 677.4000244140625 L 1287.300048828125 813 Z" fill-rule="evenodd" clip-rule="evenodd" fill="#D8B163"/>
	<path d="M 1283.300048828125 813 L 1289 677.2000122070312 L 1290.5999755859375 677.4000244140625 L 1287.300048828125 813 Z" fill-rule="evenodd" clip-rule="evenodd" fill="#D69150"/>
	<path d="M 1232.5 683.5999755859375 L 1194.800048828125 716.9000244140625 L 1229.199951171875 759.2000122070312 L 1233.4000244140625 760 L 1235.5 748 L 1351 753.0999755859375 L 1348.4000244140625 731.7999877929688 L 1350.300048828125 713.5 L 1348 711.2000122070312 L 1350.300048828125 710.2000122070312 L 1351.9000244140625 695.9000244140625 L 1346.699951171875 694 L 1244 694.2999877929688 L 1243 685 L 1241 684.5999755859375 L 1241 681.5 L 1238.9000244140625 679.7000122070312 Z" fill-rule="evenodd" clip-rule="evenodd" fill="#F5BC87"/>
	<path d="M 1232.5 683.5999755859375 L 1194.800048828125 716.9000244140625 L 1229.199951171875 759.2000122070312 L 1231.0999755859375 747.0999755859375 L 1345.800048828125 750.9000244140625 L 1343.699951171875 731 L 1345.5 712.7000122070312 L 1343.300048828125 709.5999755859375 L 1344.9000244140625 707.9000244140625 L 1346.699951171875 694 L 1241.800048828125 694.2999877929688 L 1241.300048828125 684.2999877929688 L 1239.699951171875 683.7999877929688 L 1239.199951171875 679.7000122070312 Z" fill-rule="evenodd" clip-rule="evenodd" fill="#FFE2A8"/>
	<path fill-rule="evenodd" clip-rule="evenodd" fill="#FF8181" d="M1305.1,739l-3.2-34.7l9.2-2.1l3.7,23.1l3.8-18.1l10.4,0.2&#10;&#9;&#9;l0.8,26.4l-5.2,2.5l-1.4-14.7l-4.6,18.9l-5.8,0.2l-5.5-23.2l1.5,22.9L1305.1,739z M1235.1,704l1,33.9l7.5,1.6l-2-12.2l5.7,0.3&#10;&#9;&#9;l0.5-7.3l-6.9,0.5l-1.1-7l11.6,0.4l1.3-10.1H1235.1z M1259.2,704.1l-3.7,26l-5.4,0.1l0.6,7.5l3.5-0.4l-0.8,4l8.7-0.8l0.5-4.1l5.3-1&#10;&#9;&#9;l-1.6-5.7l-2.5,0l0.2-10.4l6.4,19.7l3.4-0.5l-5.4-34L1259.2,704.1z M1277.1,703.8l0.9,34l5.2,1.3l-0.7-28.6l8.5,2.2l0.9,4l-7.1,9.3&#10;&#9;&#9;l-0.3,7l13.3,5.8l2.8-2.4l-9.5-5.4l7.2-10.3l3-10.5l-4.4-6.5L1277.1,703.8z"/>
</g>
<g transform="matrix(1.0273124569656578, 0, 0, 1.0273124569656578, 228.02004581095343, 531.0554387983876)"><g transform="matrix(0.8660665750503539, 0, 0, 0.8660665750503539, 189.26112365722645, -167.0730743408203)"><g transform="matrix(1, 0, 0, 1, 0, 0)"><g transform="matrix(1, 0, 0, 1, 0, 0)">
	<path class="st1" d="M642,418.3l-6-10.9l6.5,9.3l1.3-4.7l-5.5-10.1l6,8.6l1.3-4.6l-2.9-5.5l3.2,4.4l2.2-7.7l-1.5,7.8l4.8-2.5&#10;&#9;&#9;l-5,3.7l-0.9,4.7l9.1-5l-9.4,6.6l-0.9,4.8l9.9-5.4l-10.2,7.1l-0.7,4l5.9-3.2l-6.1,4.2l-0.5,2.7c2.5,0.2,5.1-0.9,7.4-2.8&#10;&#9;&#9;c2.7-2.3,4.8-5.8,5.8-10.1c1-4.3,0.7-8.4-0.7-11.6c-1.4-3.2-3.7-5.6-6.7-6.3c-3-0.7-6.1,0.3-8.8,2.6c-2.7,2.3-4.8,5.8-5.8,10.1&#10;&#9;&#9;c-1,4.3-0.7,8.4,0.7,11.6c1.1,2.7,3,4.8,5.3,5.8l0.7-2.6l-3.6-6.5l3.8,5.5L642,418.3z" style="fill: rgb(149, 211, 60);"/>
	<path class="st1" d="M662.5,454.7c4.3,1,8.4,0.7,11.6-0.7c3.2-1.4,5.6-3.7,6.3-6.7c0.7-3-0.3-6.1-2.6-8.8&#10;&#9;&#9;c-2.3-2.7-5.8-4.8-10.1-5.8c-4.3-1-8.4-0.7-11.6,0.7c-2.7,1.1-4.8,3-5.8,5.3l2.6,0.7l6.5-3.6l-5.5,3.8l3.9,1.1l10.9-6l-9.3,6.5&#10;&#9;&#9;l4.7,1.3l10.1-5.5l-8.6,5.9l4.6,1.3l5.5-2.9l-4.4,3.2l7.7,2.2l-7.8-1.5l2.5,4.8l-3.7-5l-4.7-0.9l5,9.1l-6.5-9.4l-4.8-0.9l5.4,9.9&#10;&#9;&#9;l-7.1-10.2l-4-0.7l3.2,5.9l-4.2-6.1l-2.7-0.5c-0.2,2.5,0.9,5.1,2.8,7.4C654.7,451.6,658.2,453.7,662.5,454.7" style="fill: rgb(149, 211, 60);"/>
	<path class="st1" d="M699.6,399.8c-2.2-3.5-6.1-5.5-10.8-5.8c-4.7-0.3-10.1,1-15.1,4.1c-5,3.1-8.6,7.3-10.3,11.7&#10;&#9;&#9;c-1.6,3.9-1.7,7.9-0.1,11.2l3.2-1.8l2.8-9.6l-1.6,8.9l4.3-2.5l4.9-16.7l-2.8,15.5l5.9-3.4l-0.2,0l4.4-15l-2.5,14.1l5.8-3.4l-0.2,0&#10;&#9;&#9;l2.5-8.1l-1.2,7.4l9.4-5.4l-9,6l7.2,2.3l-8.3-1.3l0-0.2l-5.6,3.7l13.8,4l-15.4-2.8l0-0.2l-5.7,3.8l15.1,4.4l-17.1-3.1l-4.2,2.8&#10;&#9;&#9;l8.9,2.6l-10-1.8l0-0.1l-2.9,1.9c2.3,2.9,5.8,4.5,10.1,4.8c4.7,0.3,10.1-1,15.1-4.1c5-3.1,8.6-7.3,10.3-11.7&#10;&#9;&#9;C701.8,407.6,701.8,403.3,699.6,399.8" style="fill: rgb(149, 211, 60);"/>
	<path class="st1" d="M615,420c1.4-3.2,1.7-7.4,0.7-11.6c-1-4.3-3.2-7.8-5.8-10.1c-2.7-2.3-5.8-3.3-8.8-2.6c-3,0.7-5.3,3-6.7,6.3&#10;&#9;&#9;c-1.4,3.2-1.7,7.4-0.7,11.6c1,4.3,3.2,7.8,5.8,10.1c2.2,1.9,4.8,3,7.4,2.8l-0.5-2.7l-6.1-4.2l5.9,3.2l-0.7-4l-10.2-7.1l9.9,5.4&#10;&#9;&#9;l-0.9-4.8l-9.4-6.6l9.1,5l-0.9-4.7l-5-3.7l4.8,2.5l-1.5-7.8l2.2,7.7l3.2-4.4l-2.9,5.5l1.3,4.6l5.9-8.6l-5.5,10.1l1.3,4.7l6.5-9.3&#10;&#9;&#9;l-6,10.9l1.1,3.9l3.8-5.5l-3.6,6.5l0.7,2.6C612,424.8,613.8,422.7,615,420" style="fill: rgb(149, 211, 60);"/>
	<path class="st1" d="M597.2,442l-4.2,6.1l3.2-5.9l-4,0.7l-7.1,10.2l5.4-9.9l-4.8,0.9l-6.5,9.4l5-9.1l-4.7,0.9l-3.7,5l2.5-4.8&#10;&#9;&#9;l-7.8,1.5l7.7-2.2l-4.4-3.2l5.5,2.9l4.6-1.3l-8.6-5.9l10.1,5.5l4.7-1.3l-9.3-6.5l10.9,6l3.9-1.1l-5.5-3.8l6.5,3.6l2.6-0.7&#10;&#9;&#9;c-1-2.3-3.1-4.2-5.8-5.3c-3.2-1.4-7.4-1.7-11.6-0.7c-4.3,1-7.8,3.2-10.1,5.8c-2.3,2.7-3.3,5.8-2.6,8.8c0.7,3,3,5.3,6.3,6.7&#10;&#9;&#9;c3.2,1.4,7.4,1.7,11.6,0.7c4.3-1,7.8-3.2,10.1-5.8c1.9-2.2,3-4.8,2.8-7.4L597.2,442z" style="fill: rgb(149, 211, 60);"/>
	<path class="st1" d="M586,409.7c-1.8-4.3-5.4-8.6-10.3-11.7c-5-3.1-10.4-4.4-15.1-4.1c-4.7,0.3-8.6,2.3-10.8,5.8l0,0&#10;&#9;&#9;c-2.2,3.5-2.2,7.9-0.4,12.2c1.8,4.3,5.4,8.6,10.3,11.7c5,3.1,10.4,4.4,15.1,4.1c4.2-0.3,7.8-2,10.1-4.8l-2.9-1.9l0,0.1l-10,1.8&#10;&#9;&#9;l8.9-2.6l-4.2-2.8l-17.1,3.1l15.1-4.4l-5.7-3.8l0,0.2l-15.4,2.8l13.8-4l-5.6-3.7l0,0.2l-8.3,1.3l7.2-2.3l-9-6l9.4,5.4l-1.2-7.4&#10;&#9;&#9;l2.5,8.1l-0.2,0l5.8,3.4l-2.5-14.1l4.4,15l-0.2,0l5.9,3.4l-2.8-15.5l4.9,16.7l4.3,2.5l-1.6-8.9l2.8,9.6l3.2,1.8&#10;&#9;&#9;C587.7,417.5,587.6,413.6,586,409.7" style="fill: rgb(149, 211, 60);"/>
	<path class="st1" d="M617.6,373.4c-0.7-4.3-3-8.8-6.8-12.7c-3.8-3.8-8.4-6.1-12.7-6.8c-4.3-0.7-8.2,0.3-10.9,3&#10;&#9;&#9;c-2.7,2.7-3.6,6.6-3,10.9c0.7,4.3,3,8.8,6.8,12.7c3.8,3.8,8.4,6.1,12.7,6.8c3.6,0.6,7,0,9.5-1.8l-2.2-2.5l-9.1-0.5l8.3-0.4&#10;&#9;&#9;l-3.4-3.7l-15.3-0.8l13.9-0.7l-4-4.4l-14.1-0.7l12.8-0.7l-4-4.3l-7.7-0.6l6.7-0.5l-6.6-7.3l7.3,6.6l0.5-6.7l0.6,7.7l4.3,4l0.7-12.8&#10;&#9;&#9;l0.7,14.1l4.4,4l0.7-13.9l0.8,15.3l3.7,3.4l0.4-8.3l0.5,9.1l2.5,2.2C617.6,380.4,618.2,377.1,617.6,373.4" style="fill: rgb(149, 211, 60);"/>
	<path class="st1" d="M636.2,380.7l0.5-9.1l0.4,8.3l3.7-3.4l0.8-15.3l0.7,13.9l4.4-4l0.7-14.1l0.7,12.8l4.3-4l0.6-7.7l0.5,6.7&#10;&#9;&#9;l7.3-6.6l-6.6,7.3l6.7,0.5l-7.7,0.6l-4,4.3l12.8,0.7l-14.1,0.7l-4,4.4l13.9,0.7l-15.3,0.8l-3.4,3.7l8.3,0.4l-9.1,0.5l-2.2,2.5&#10;&#9;&#9;c2.6,1.8,5.9,2.4,9.5,1.8c4.3-0.7,8.8-3,12.7-6.8c3.8-3.8,6.1-8.4,6.8-12.7c0.7-4.3-0.3-8.2-2.9-10.9v0c-2.7-2.7-6.6-3.6-10.9-3&#10;&#9;&#9;c-4.3,0.7-8.8,3-12.7,6.8c-3.8,3.8-6.1,8.4-6.8,12.7c-0.6,3.6,0,7,1.8,9.5L636.2,380.7z" style="fill: rgb(149, 211, 60);"/>
	<path class="st1" d="M637.9,350.2c3.4-4.7,5.5-11.2,5.5-18.4c0-7.2-2.1-13.7-5.5-18.4c-3.4-4.7-8-7.5-13.1-7.5&#10;&#9;&#9;c-5.1,0-9.7,2.8-13.1,7.5c-3.4,4.7-5.5,11.2-5.5,18.4c0,7.2,2.1,13.7,5.5,18.4c3.1,4.2,7.1,6.9,11.6,7.4l0.1-4.5l-8.2-9.2l8.3,7.5&#10;&#9;&#9;l0.2-6.1l-14.3-15.9l14.4,13l0.3-8.5l-12.7-14.1l12.7,11.5l0.2-7.8l-6.7-7.8l6.8,5.8l0.4-13.1l0.4,13.2l6.8-5.9l-6.8,7.9l0.2,7.8&#10;&#9;&#9;l12.9-11.6l-12.8,14.2l0.3,8.4l14.4-13l-14.3,15.9l0.2,6.3l8.5-7.7l-8.4,9.3l-0.1-0.1l0.1,4.4C630.8,357.2,634.9,354.5,637.9,350.2&#10;&#9;&#9;" style="fill: rgb(149, 211, 60);"/>
	<path class="st0" d="M700.5,398.2c-2.4-3.9-6.7-6-11.6-6.3c-4.9-0.4-10.6,1-15.7,4.2c-5.2,3.2-8.9,7.6-10.8,12.2&#10;&#9;&#9;c-1.7,4.2-1.9,8.5-0.1,12.2l-21.1,12.2l1.2-6.4c2.8,0.2,5.7-0.9,8.1-3c2.8-2.4,5-6.1,6.1-10.6c1-4.4,0.7-8.7-0.7-12.2&#10;&#9;&#9;c-1.4-3.4-4-6-7.3-6.7c-3.3-0.8-6.7,0.4-9.5,2.8c-2.8,2.4-5,6.1-6.1,10.6c-1,4.4-0.7,8.7,0.7,12.2c1.2,2.9,3.3,5.2,5.9,6.3&#10;&#9;&#9;l-2.7,9.5l0,0l-8.4,4.9l-0.4-29.2h-0.1l-0.5-16.7l8-8.8c2.8,2,6.6,2.7,10.4,2.1c4.5-0.7,9.3-3.2,13.2-7.1c4-4,6.4-8.7,7.1-13.2&#10;&#9;&#9;c0.7-4.5-0.3-8.8-3.2-11.8c-3-3-7.3-4-11.8-3.2c-4.5,0.7-9.3,3.1-13.2,7.1c-4,4-6.4,8.7-7.1,13.2c-0.6,3.9,0,7.6,2.1,10.4l-5.7,5.2&#10;&#9;&#9;l-0.9-29.8c5-0.5,9.4-3.5,12.7-8c3.6-5,5.8-11.7,5.8-19.2c0-7.5-2.2-14.3-5.8-19.2c-3.6-4.9-8.6-8.1-14.2-8.1&#10;&#9;&#9;c-5.6,0-10.6,3.1-14.2,8.1c-3.6,5-5.8,11.7-5.8,19.2c0,7.5,2.2,14.3,5.8,19.2c3.3,4.5,7.7,7.5,12.7,8l-0.9,30l-5.9-5.4&#10;&#9;&#9;c2-2.8,2.7-6.6,2.1-10.4c-0.7-4.5-3.2-9.3-7.1-13.2c-4-4-8.7-6.4-13.2-7.1c-4.5-0.7-8.8,0.3-11.8,3.2c-3,3-4,7.3-3.2,11.8&#10;&#9;&#9;c0.7,4.5,3.2,9.3,7.1,13.2c4,4,8.7,6.4,13.2,7.1c3.9,0.6,7.6,0,10.4-2.1l8.2,9l0,0l-0.5,16.5h-0.1l-0.6,29.3l-8.5-4.9l0,0l-2.7-9.5&#10;&#9;&#9;c2.6-1.1,4.7-3.4,5.9-6.3c1.4-3.4,1.8-7.7,0.7-12.2c-1-4.4-3.3-8.1-6.1-10.6c-2.8-2.4-6.2-3.6-9.5-2.8c-3.3,0.8-5.8,3.3-7.3,6.7&#10;&#9;&#9;c-1.4,3.4-1.8,7.7-0.7,12.2c1,4.4,3.3,8.1,6.1,10.6c2.4,2.1,5.2,3.2,8.1,3l1.2,6.4l-21.1-12.2c1.8-3.7,1.6-8-0.1-12.2&#10;&#9;&#9;c-1.9-4.6-5.6-9-10.8-12.2c-5.2-3.2-10.8-4.6-15.7-4.2c-4.9,0.4-9.2,2.5-11.6,6.3c-2.4,3.9-2.4,8.7-0.5,13.2&#10;&#9;&#9;c1.9,4.6,5.6,9,10.8,12.2c5.2,3.2,10.8,4.6,15.7,4.2c4.5-0.3,8.4-2.1,10.9-5.3l20.2,13.4l-6,1.7c-1.1-2.6-3.4-4.7-6.3-5.9&#10;&#9;&#9;c-3.4-1.4-7.7-1.8-12.2-0.7c-4.4,1-8.1,3.3-10.6,6.1c-2.4,2.8-3.6,6.2-2.8,9.5c0.8,3.3,3.3,5.8,6.7,7.3c3.4,1.4,7.7,1.8,12.2,0.7&#10;&#9;&#9;c4.4-1,8.1-3.3,10.6-6.1c2.1-2.4,3.2-5.2,3-8.1l9.5-1.8l10.8,7.1l-4.5,48.4h16.5l-4.4-48.5l10.7-7.1l9.5,1.8&#10;&#9;&#9;c-0.2,2.8,0.9,5.7,3,8.1c2.4,2.8,6.1,5,10.6,6.1c4.4,1,8.7,0.7,12.2-0.7c3.4-1.4,6-4,6.7-7.3c0.8-3.3-0.4-6.7-2.8-9.5&#10;&#9;&#9;c-2.4-2.8-6.1-5-10.6-6.1c-4.4-1-8.7-0.7-12.2,0.7c-2.9,1.2-5.2,3.3-6.3,5.9l-6-1.7l20.2-13.4c2.5,3.2,6.4,5,10.9,5.3&#10;&#9;&#9;c4.9,0.4,10.6-1,15.7-4.2c5.2-3.2,8.9-7.6,10.8-12.2C702.9,406.8,702.9,402,700.5,398.2z M631.8,372.4c0.7-4.3,3-8.8,6.8-12.7&#10;&#9;&#9;c3.8-3.8,8.4-6.1,12.7-6.8c4.3-0.7,8.2,0.3,10.9,3v0c2.7,2.7,3.6,6.6,2.9,10.9c-0.7,4.3-3,8.8-6.8,12.7c-3.8,3.8-8.4,6.1-12.7,6.8&#10;&#9;&#9;c-3.6,0.6-7,0-9.5-1.8l2.2-2.5l9.1-0.5l-8.3-0.4l3.4-3.7l15.3-0.8l-13.9-0.7l4-4.4l14.1-0.7l-12.8-0.7l4-4.3l7.7-0.6l-6.7-0.5&#10;&#9;&#9;l6.6-7.3l-7.3,6.6l-0.5-6.7l-0.6,7.7l-4.3,4l-0.7-12.8l-0.7,14.1l-4.4,4l-0.7-13.9l-0.8,15.3l-3.7,3.4l-0.4-8.3l-0.5,9.1l-2.5,2.2&#10;&#9;&#9;C631.8,379.4,631.2,376,631.8,372.4z M613.2,379.7l-0.5-9.1l-0.4,8.3l-3.7-3.4l-0.8-15.3l-0.7,13.9l-4.4-4l-0.7-14.1l-0.7,12.8&#10;&#9;&#9;l-4.3-4l-0.6-7.7l-0.5,6.7l-7.3-6.6l6.6,7.3l-6.7,0.5l7.7,0.6l3.9,4.3l-12.8,0.7l14.1,0.7l4,4.4l-13.9,0.7l15.3,0.8l3.4,3.7&#10;&#9;&#9;l-8.3,0.4l9.1,0.5l2.2,2.5c-2.6,1.8-5.9,2.4-9.5,1.8c-4.3-0.7-8.8-3-12.7-6.8c-3.8-3.8-6.1-8.4-6.8-12.7c-0.7-4.3,0.3-8.2,3-10.9&#10;&#9;&#9;c2.7-2.7,6.6-3.6,10.9-3c4.3,0.7,8.8,3,12.7,6.8c3.8,3.8,6.1,8.4,6.8,12.7c0.6,3.6,0,7-1.8,9.5L613.2,379.7z M583,418l-2.8-9.6&#10;&#9;&#9;l1.6,8.9l-4.3-2.5l-4.9-16.7l2.8,15.5l-5.9-3.4l0.2,0l-4.4-15l2.5,14.1l-5.8-3.4l0.2,0l-2.5-8.1l1.2,7.4l-9.4-5.4l9,6l-7.2,2.3&#10;&#9;&#9;l8.3-1.3l0-0.2l5.6,3.7l-13.8,4l15.4-2.8l0-0.2l5.7,3.8l-15.1,4.4l17.1-3.1l4.2,2.8l-8.9,2.6l10-1.8l0-0.1l2.9,1.9&#10;&#9;&#9;c-2.3,2.9-5.8,4.5-10.1,4.8c-4.7,0.3-10.1-1-15.1-4.1c-5-3.1-8.6-7.3-10.3-11.7c-1.8-4.3-1.8-8.7,0.4-12.2l0,0&#10;&#9;&#9;c2.2-3.5,6.1-5.5,10.8-5.8c4.7-0.3,10.1,1,15.1,4.1c5,3.1,8.6,7.3,10.3,11.7c1.6,3.9,1.7,7.9,0.1,11.2L583,418z M597,447.9&#10;&#9;&#9;c-2.3,2.7-5.8,4.8-10.1,5.8c-4.3,1-8.4,0.7-11.6-0.7c-3.2-1.4-5.6-3.7-6.3-6.7c-0.7-3,0.3-6.1,2.6-8.8c2.3-2.7,5.8-4.8,10.1-5.8&#10;&#9;&#9;c4.3-1,8.4-0.7,11.6,0.7c2.7,1.1,4.8,3,5.8,5.3l-2.6,0.7l-6.5-3.6l5.5,3.8l-3.9,1.1l-10.9-6l9.3,6.5l-4.7,1.3l-10.1-5.5l8.6,5.9&#10;&#9;&#9;l-4.6,1.3l-5.5-2.9l4.4,3.2l-7.7,2.2l7.8-1.5l-2.5,4.8l3.7-5l4.7-0.9l-5,9.1l6.5-9.4l4.8-0.9l-5.4,9.9l7.1-10.2l4-0.7l-3.2,5.9&#10;&#9;&#9;l4.2-6.1l2.7-0.5C600,443.1,599,445.6,597,447.9z M608.8,422.1l3.6-6.5l-3.8,5.5l-1.1-3.9l6-10.9l-6.5,9.3l-1.3-4.7l5.5-10.1&#10;&#9;&#9;l-5.9,8.6l-1.3-4.6l2.9-5.5l-3.2,4.4l-2.2-7.7l1.5,7.8l-4.8-2.5l5,3.7l0.9,4.7l-9.1-5l9.4,6.6l0.9,4.8l-9.9-5.4l10.2,7.1l0.7,4&#10;&#9;&#9;l-5.9-3.2l6.1,4.2l0.5,2.7c-2.5,0.1-5.1-0.9-7.4-2.8c-2.7-2.3-4.8-5.8-5.8-10.1c-1-4.3-0.7-8.4,0.7-11.6c1.4-3.2,3.7-5.6,6.7-6.3&#10;&#9;&#9;c3-0.7,6.1,0.3,8.8,2.6c2.7,2.3,4.8,5.8,5.8,10.1c1,4.3,0.7,8.4-0.7,11.6c-1.1,2.7-3,4.8-5.3,5.8L608.8,422.1z M626.1,352.3&#10;&#9;&#9;L626.1,352.3l8.5-9.3l-8.5,7.7l-0.2-6.3l14.3-15.9l-14.4,13l-0.2-8.4l12.8-14.2l-12.9,11.6l-0.2-7.8l6.8-7.9l-6.8,5.9l-0.4-13.2&#10;&#9;&#9;l-0.4,13.1l-6.8-5.8l6.7,7.8l-0.2,7.8l-12.7-11.5l12.7,14.1l-0.3,8.5l-14.4-13l14.3,15.9l-0.2,6.1l-8.3-7.5l8.2,9.2l-0.1,4.5&#10;&#9;&#9;c-4.5-0.5-8.5-3.2-11.6-7.4c-3.4-4.7-5.5-11.2-5.5-18.4c0-7.2,2.1-13.7,5.5-18.4c3.4-4.7,8-7.5,13.1-7.5c5.1,0,9.7,2.8,13.1,7.5&#10;&#9;&#9;c3.4,4.7,5.5,11.2,5.5,18.4c0,7.2-2.1,13.7-5.5,18.4c-3.1,4.2-7.1,6.9-11.6,7.4L626.1,352.3z M640.5,422.1l-0.7,2.6&#10;&#9;&#9;c-2.3-1-4.2-3.1-5.3-5.8c-1.4-3.2-1.7-7.4-0.7-11.6c1-4.3,3.2-7.8,5.8-10.1c2.7-2.3,5.8-3.3,8.8-2.6c3,0.7,5.3,3,6.7,6.3&#10;&#9;&#9;c1.4,3.2,1.7,7.4,0.7,11.6c-1,4.3-3.2,7.8-5.8,10.1c-2.2,1.9-4.8,3-7.4,2.8l0.5-2.7l6.1-4.2l-5.9,3.2l0.7-4l10.2-7.1l-9.9,5.4&#10;&#9;&#9;l0.9-4.8l9.4-6.6l-9.1,5l0.9-4.7l5-3.7l-4.8,2.5l1.5-7.8l-2.2,7.7l-3.2-4.4l2.9,5.5l-1.3,4.6l-6-8.6l5.5,10.1l-1.3,4.7l-6.5-9.3&#10;&#9;&#9;l6,10.9l-1.1,3.9l-3.8-5.5L640.5,422.1z M649.5,440.5l2.7,0.5l4.2,6.1l-3.2-5.9l4,0.7l7.1,10.2l-5.4-9.9l4.8,0.9l6.5,9.4l-5-9.1&#10;&#9;&#9;l4.7,0.9l3.7,5l-2.5-4.8l7.8,1.5l-7.7-2.2l4.4-3.2l-5.5,2.9l-4.6-1.3l8.6-5.9l-10.1,5.5l-4.7-1.3l9.3-6.5l-10.9,6l-3.9-1.1l5.5-3.8&#10;&#9;&#9;l-6.5,3.6l-2.6-0.7c1-2.3,3.1-4.2,5.8-5.3c3.2-1.4,7.4-1.7,11.6-0.7c4.3,1,7.8,3.2,10.1,5.8c2.3,2.7,3.3,5.8,2.6,8.8&#10;&#9;&#9;c-0.7,3-3,5.3-6.3,6.7c-3.2,1.4-7.4,1.7-11.6,0.7c-4.3-1-7.8-3.2-10.1-5.8C650.4,445.6,649.4,443.1,649.5,440.5z M700,411&#10;&#9;&#9;c-1.8,4.3-5.4,8.6-10.3,11.7c-5,3.1-10.4,4.4-15.1,4.1c-4.2-0.3-7.8-2-10.1-4.8l2.9-1.9l0,0.1l10,1.8l-8.9-2.6l4.2-2.8l17.1,3.1&#10;&#9;&#9;l-15.1-4.4l5.7-3.8l0,0.2l15.4,2.8l-13.8-4l5.6-3.7l0,0.2l8.3,1.3l-7.2-2.3l9-6l-9.4,5.4l1.2-7.4l-2.5,8.1l0.2,0l-5.8,3.4l2.5-14.1&#10;&#9;&#9;l-4.4,15l0.2,0l-5.9,3.4l2.8-15.5l-4.9,16.7l-4.3,2.5l1.6-8.9l-2.8,9.6l-3.2,1.8c-1.6-3.3-1.5-7.3,0.2-11.2&#10;&#9;&#9;c1.8-4.3,5.4-8.6,10.3-11.7c5-3.1,10.4-4.4,15.1-4.1c4.7,0.3,8.6,2.3,10.8,5.8C701.7,402.2,701.8,406.6,700,411z" style="fill: rgb(53, 111, 45);"/>
</g></g></g></g><g transform="matrix(0.3505605459213257, 0, 0, 0.3505605459213257, 306.9050467926593, 600.1204156263409)"><clipPath id="path-1">
			<use style="overflow:visible;" xlink:href="#XMLID_72_"/>
		</clipPath><g id="g-1" class="st3" transform="matrix(1, 0, 0, 1, -136.46374511718756, -293.8014831542969)" style="clip-path: url('#path-1');">
			<path d="M 1007.7000122070312 797.0999755859375 L 240.39999389648438 797.0999755859375 L 283.79998779296875 699.7999877929688 L 1007.7000122070312 699.7999877929688 Z" id="path-2" class="st11" style="fill: rgb(224, 59, 59);"/>
			<path d="M 1008 719 L 1008 700 L 283.79998779296875 700 L 275.29998779296875 719 Z" id="path-3" class="st12" style="fill: rgb(239, 84, 84);"/>
			<path d="M 219.800003 797.099976 H 1028.200027 V 854.099976 H 219.800003 V 797.099976 Z" id="path-4" class="st13" style="fill: rgb(198, 50, 50);"/>
			<path d="M 219.800003 839.099976 H 1028.200027 V 854.099976 H 219.800003 V 839.099976 Z" id="path-5" class="st14" style="fill: rgb(165, 47, 47);"/>
			<path d="M 932.2999877929688 699.7999877929688 L 419.8999938964844 699.7999877929688 L 543.5 555.4000244140625 L 833.2000122070312 555.4000244140625 Z" id="path-6" class="st11" style="fill: rgb(224, 59, 59);"/>
			<path d="M 839.5 565 L 833.2000122070312 555 L 543.5 555 L 535.7000122070312 565 Z" id="path-7" class="st12" style="fill: rgb(239, 84, 84);"/>
			<path d="M 898.9000244140625 699.7999877929688 L 452.1000061035156 699.7999877929688 L 557.9000244140625 578.0999755859375 L 819.0999755859375 578.0999755859375 Z" id="path-8" class="st10" style="fill: rgb(37, 40, 40);"/>
			<path d="M 557.9000244140625 578 L 518 624 L 849.2000122070312 624 L 819.0999755859375 578 Z" id="path-9" class="st15" style="fill: rgb(57, 61, 61);"/>
			<path d="M 479.300003 843.599976 A 74.800003 74.800003 0 0 1 404.5 918.399979 A 74.800003 74.800003 0 0 1 329.699997 843.599976 A 74.800003 74.800003 0 0 1 404.5 768.799973 A 74.800003 74.800003 0 0 1 479.300003 843.599976 Z" id="path-10" class="st10" style="fill: rgb(37, 40, 40);"/>
			<path d="M 452.099998 843.599976 A 47.599998 47.599998 0 0 1 404.5 891.199974 A 47.599998 47.599998 0 0 1 356.900002 843.599976 A 47.599998 47.599998 0 0 1 404.5 795.999977 A 47.599998 47.599998 0 0 1 452.099998 843.599976 Z" id="path-11" class="st15" style="fill: rgb(57, 61, 61);"/>
			<path d="M 430.700001 843.599976 A 26.200001 26.200001 0 0 1 404.5 869.799976 A 26.200001 26.200001 0 0 1 378.299999 843.599976 A 26.200001 26.200001 0 0 1 404.5 817.399975 A 26.200001 26.200001 0 0 1 430.700001 843.599976 Z" id="path-12" class="st16" style="fill: rgb(239, 238, 237);"/>
			<path d="M 932.599991 843.599976 A 74.800003 74.800003 0 0 1 857.799988 918.399979 A 74.800003 74.800003 0 0 1 782.999985 843.599976 A 74.800003 74.800003 0 0 1 857.799988 768.799973 A 74.800003 74.800003 0 0 1 932.599991 843.599976 Z" id="path-13" class="st10" style="fill: rgb(37, 40, 40);"/>
			<path d="M 905.399986 843.599976 A 47.599998 47.599998 0 0 1 857.799988 891.199974 A 47.599998 47.599998 0 0 1 810.199989 843.599976 A 47.599998 47.599998 0 0 1 857.799988 795.999977 A 47.599998 47.599998 0 0 1 905.399986 843.599976 Z" id="path-14" class="st15" style="fill: rgb(57, 61, 61);"/>
			<path d="M 883.999989 843.599976 A 26.200001 26.200001 0 0 1 857.799988 869.799976 A 26.200001 26.200001 0 0 1 831.599987 843.599976 A 26.200001 26.200001 0 0 1 857.799988 817.399975 A 26.200001 26.200001 0 0 1 883.999989 843.599976 Z" id="path-15" class="st16" style="fill: rgb(239, 238, 237);"/>
			<path d="M 252.89999389648438 769 L 304 769 L 304 730 L 270.3999938964844 730 Z" id="path-16" class="st16" style="fill: rgb(239, 238, 237);"/>
			<path d="M 304 729.599976 H 323.6 V 768.799976 H 304 V 729.599976 Z" id="path-17" class="st17" style="fill: rgb(255, 163, 0);"/>
			<path d="M 975 730 H 1008 V 769 H 975 V 730 Z" id="path-18" class="st16" style="fill: rgb(239, 238, 237);"/>
			<path d="M 955.299988 729.599976 H 974.899988 V 768.799976 H 955.299988 V 729.599976 Z" id="path-19" class="st17" style="fill: rgb(255, 163, 0);"/>
			<path d="M 632.799988 567.200012 H 655.399988 V 699.700012 H 632.799988 V 567.200012 Z" id="path-20" class="st11" style="fill: rgb(224, 59, 59);"/>
			<path d="M 796.099976 567.200012 H 818.699976 V 699.700012 H 796.099976 V 567.200012 Z" id="path-21" class="st11" style="fill: rgb(224, 59, 59);"/>
			<path d="M 580.5 729.599976 H 632.799999 V 743.999975 H 580.5 V 729.599976 Z" id="path-22" class="st13" style="fill: rgb(198, 50, 50);"/>
			<path d="M 743.799988 729.599976 H 796.099987 V 743.999975 H 743.799988 V 729.599976 Z" id="path-23" class="st13" style="fill: rgb(198, 50, 50);"/>
			<path d="M 474.100006 646.900024 H 485.900006 V 691.600025 H 474.100006 V 646.900024 Z" id="path-24" class="st12" style="fill: rgb(239, 84, 84);"/>
		</g></g><g transform="matrix(6.6480072764150835, 0, 0, 6.6480072764150835, -2591.019319463408, -2257.980286104233)"><g transform="matrix(1, 0, 0, 1, 5.684341886080802e-14, -2.842170943040401e-14)">
		<path class="st54" d="M419,450.7c0,0,0.5,1.6,0.4,3.9c0,0,0.2,4-1.1,4.8c0,0-3.1,1.4,2.3,1.3c5.3,0,2.7-1.1,2.3-1.4&#10;&#9;&#9;&#9;c0,0-1.2-2-1.2-4.8c0,0,0-4.3,0.5-5.5L419,450.7z" style="fill: rgb(133, 103, 65);"/>
		<g>
			<path class="st73" d="M414,448.4c0.4,0.6,1,1,1.7,1.1c1,0.2,1.2,0.1,2,0.8c0.6,0.5,1.3,1.1,2.2,0.8c0.3-0.1,0.5-0.3,0.8-0.4&#10;&#9;&#9;&#9;&#9;c0.4-0.1,0.9-0.1,1.3-0.2c0.8-0.3,1.4-0.8,2.3-0.9c1-0.2,1.4,0,1.8-1c0.5-1,1-1.1,1.9-1.6c0.9-0.4,1.9-1,1.6-2.1&#10;&#9;&#9;&#9;&#9;c-0.2-0.8-1-1.2-0.8-2.1c0.1-0.7,0.8-0.9,0.9-1.6c0.1-0.9-1.1-1.1-1.2-2c-0.1-0.8,0.7-1.3,0.2-2.2c-0.2-0.3-0.6-0.5-0.8-0.9&#10;&#9;&#9;&#9;&#9;c-0.1-0.2,0-0.6,0-0.8c-0.1-0.8-0.5-0.7-0.9-1.3c-0.2-0.3,0-0.6-0.1-0.9c-0.2-0.4-0.4-0.4-0.7-0.7c-0.4-0.3-0.4-0.4-0.6-0.8&#10;&#9;&#9;&#9;&#9;c-0.2-0.4,0-0.5-0.5-0.7c-0.4-0.2-1,0.1-1.4-0.1c-0.5-0.3-0.5-0.8-0.8-1.2c-0.1,0.2-0.1,0.5-0.1,0.7c0.1,0.5,0.8,0.9,1.1,1.3&#10;&#9;&#9;&#9;&#9;c0.2,0.3,0.2,0.5,0.3,0.8c0.7,1.6,1.7,2.8,1.8,4.6c0,0.3,0.1,0.8,0,1.1c-0.1,0.3-0.4,0.6-0.4,0.9c-0.1,0.7,0.9,1.1,0.7,1.7&#10;&#9;&#9;&#9;&#9;c-0.3,0.9-1.4-0.2-1.6,0.9c-0.1,0.7,0.6,1.1,0.6,1.6c0.1,0.9-0.9,0.4-1.6,0.8c-0.8,0.4-0.6,1.2-1,1.8c-0.4,0.5-1,0.3-1.5,0.5&#10;&#9;&#9;&#9;&#9;c-0.6,0.2-0.4,0.2-0.9,0.7c-1,1-1.3,0.9-2.6,1c-0.3,0-0.5,0.2-0.9,0.2c-0.5,0-0.7-0.2-1.2-0.4c-0.5-0.2-1.4-0.3-2-0.1&#10;&#9;&#9;&#9;&#9;c0,0,0,0,0,0C414,447.9,413.8,448.1,414,448.4z" style="fill: rgb(26, 121, 61);"/>
			<path class="st74" d="M412.4,443.6c0.5,0.5,1.2,0.5,1.7,1.1c0.2,0.2,0.2,0.6,0.6,0.8c0.5,0.3,0.3,0.1,0.7,0.1&#10;&#9;&#9;&#9;&#9;c0.4,0,0.7-0.2,1.1-0.2c0.3,0,0.9,0.2,1.2,0.1c0.8-0.4,0.1-0.4-0.1-0.9c-0.1-0.5,0.2-1.1,0.8-1.1c0.6,0,0.6,0.8,1.2,1.1&#10;&#9;&#9;&#9;&#9;c0.7,0.3,0.8-0.2,1-0.7c0.2-0.5,0.8-1.1,0.8-1.6c0.7,0,1.1-0.5,0.5-1c0.7-0.3,0.5-0.7,0-1.1c0.4-0.4,2.5-1,2.2-1.8&#10;&#9;&#9;&#9;&#9;c-0.1-0.2-0.6-0.5-0.8-0.7c-0.2-0.2-0.3-0.5-0.3-0.8c0.3-0.1,0.9,0,1.1-0.3c0.1-0.1,0.1-1.1,0-1.2c0-0.4-0.3-0.7-0.2-1.1&#10;&#9;&#9;&#9;&#9;c0.1-0.3,0.4-0.3,0.4-0.8c0-0.3-0.5-0.6-0.6-0.9c-0.1-0.2-0.1-0.8-0.1-1c0-0.2,0-0.4,0.1-0.5c-0.3-0.3-0.7-0.5-0.8-0.9&#10;&#9;&#9;&#9;&#9;c-0.1-0.2,0-0.5,0.1-0.7c-0.1-0.1-0.1-0.1-0.2-0.2c-0.7-0.5-1.4-0.1-2.2-0.1c-0.3-0.1-0.8,0-0.8,0c-0.8,0-0.7,0.8-1.6,0.9&#10;&#9;&#9;&#9;&#9;c-1,0.2-1-0.1-1.2,0.9c-0.2,0.7-0.3,1.6-1,1.7c-0.4,0.1-0.6-0.1-1,0c-0.3,0.1-0.7,0.5-0.9,0.7c-1,0.9-0.3,1.3-0.6,2.3&#10;&#9;&#9;&#9;&#9;c-0.3,0.8-1.6,0.8-1.9,1.7c-0.1,0.3,0,0.6,0.1,0.8c0.1,0.6,0.1,0.4,0,0.9c-0.3,1-0.5,1.9-0.5,2.8c0.1,0.1,0.3,0.1,0.3,0.2&#10;&#9;&#9;&#9;&#9;C411.8,442.6,411.9,443.2,412.4,443.6z" style="fill: rgb(19, 160, 73);"/>
			<path class="st75" d="M411.7,444.9c0,0.4-0.3,0.7-0.3,1c0,0.8,0.3,0.9,1,1.1c0.4,0.2,1.1,0.3,1.4,0.6c0.6-0.2,1.5-0.1,2,0.1&#10;&#9;&#9;&#9;&#9;c0.5,0.2,0.6,0.4,1.2,0.4c0.4,0,0.6-0.2,0.9-0.2c1.3-0.1,1.6,0.1,2.6-1c0.4-0.4,0.3-0.4,0.9-0.7c0.5-0.2,1.1,0,1.5-0.5&#10;&#9;&#9;&#9;&#9;c0.4-0.5,0.3-1.3,1-1.8c0.7-0.4,1.7,0,1.6-0.8c-0.1-0.5-0.8-0.9-0.6-1.6c0.2-1.1,1.4,0,1.6-0.9c0.2-0.6-0.8-1-0.7-1.7&#10;&#9;&#9;&#9;&#9;c0-0.3,0.3-0.6,0.4-0.9c0.1-0.3,0-0.8,0-1.1c-0.1-1.8-1.1-3-1.8-4.6c-0.2-0.3-0.1-0.5-0.3-0.8c-0.1-0.1-0.2-0.2-0.3-0.3&#10;&#9;&#9;&#9;&#9;c0,0.1-0.1,0.3-0.1,0.5c0,0.3,0,0.8,0.1,1c0.1,0.3,0.5,0.6,0.6,0.9c0.1,0.5-0.3,0.4-0.4,0.8c-0.1,0.4,0.2,0.7,0.2,1.1&#10;&#9;&#9;&#9;&#9;c0,0.2,0,1.1,0,1.2c-0.2,0.3-0.8,0.2-1.1,0.3c0,0.3,0.1,0.6,0.3,0.8c0.2,0.2,0.7,0.5,0.8,0.7c0.3,0.8-1.8,1.4-2.2,1.8&#10;&#9;&#9;&#9;&#9;c0.4,0.5,0.6,0.8,0,1.1c0.6,0.5,0.2,1-0.5,1c0.1,0.5-0.6,1.1-0.8,1.6c-0.2,0.5-0.3,1-1,0.7c-0.6-0.3-0.5-1.1-1.2-1.1&#10;&#9;&#9;&#9;&#9;c-0.5,0-0.9,0.6-0.8,1.1c0.1,0.5,0.9,0.6,0.1,0.9c-0.3,0.2-0.9,0-1.2-0.1c-0.4,0-0.8,0.1-1.1,0.2c-0.4,0-0.2,0.2-0.7-0.1&#10;&#9;&#9;&#9;&#9;c-0.4-0.2-0.4-0.6-0.6-0.8c-0.5-0.6-1.2-0.6-1.7-1.1c-0.4-0.4-0.6-1-1.1-1.4c-0.1-0.1-0.2-0.1-0.3-0.2c0,0.6,0.2,1.2,0.4,1.8&#10;&#9;&#9;&#9;&#9;C411.5,444.2,411.7,444.5,411.7,444.9z" style="fill: rgb(29, 138, 67);"/>
		</g>
	</g></g></svg>