<?xml version="1.0" encoding="iso-8859-1"?>
<!-- Generator: Adobe Illustrator 19.0.0, SVG Export Plug-In . SVG Version: 6.00 Build 0)  -->
<svg version="1.1" id="Layer_1" xmlns="http://www.w3.org/2000/svg" xmlns:xlink="http://www.w3.org/1999/xlink" x="0px" y="0px"
	 viewBox="0 0 508.609 508.609" style="enable-background:new 0 0 508.609 508.609;" xml:space="preserve">
<circle style="fill:#90DFAA;" cx="254.305" cy="255.322" r="217.007"/>
<path style="fill:#FFFFFF;" d="M270.919,85.785v0.339c-2.374,8.477-9.494,12.885-16.615,12.885s-14.241-4.408-16.615-12.885v-0.339
	c0,0,0,0-0.339,0c1.017-2.034,2.034-5.086,2.034-5.425c0.678-2.034,1.017-3.73,1.356-5.425c0.678-5.086,0.339-8.816,0.339-8.816
	l13.224-0.678l0,0l0,0l0,0l0,0l13.224,0.678c0,0-0.339,3.73,0.339,8.816c0.339,1.695,0.678,3.73,1.356,5.425l0,0
	C269.563,82.395,270.241,84.09,270.919,85.785z"/>
<path style="fill:#E6E9EE;" d="M269.224,80.699c-2.034,3.391-7.799,6.442-14.919,6.442s-12.885-3.052-14.919-6.442
	c0.678-2.034,1.017-3.73,1.356-5.425c2.713-2.374,7.799-3.73,13.563-3.73s11.189,1.695,13.563,3.73
	C268.207,76.97,268.546,78.665,269.224,80.699z"/>
<path style="fill:#FFFFFF;" d="M277.022,41.028c-6.781-2.374-14.58-3.73-22.718-3.73c-7.46,0-14.58,1.017-20.683,3.052
	c-1.017,0.339-1.695,0.678-2.713,1.017l2.374,24.074c0.339,3.052,1.356,5.764,3.391,8.138c0,0,4.408,5.425,5.425,6.103
	c3.391,2.713,7.46,4.408,11.868,4.408s8.816-1.356,11.868-4.408c1.017-0.678,5.425-6.103,5.425-6.103
	c2.034-2.374,3.052-5.086,3.391-8.138L277.022,41.028L277.022,41.028z"/>
<g>
	<path style="fill:#FFD05B;" d="M254.305,109.181L254.305,109.181L254.305,109.181z"/>
	<path style="fill:#FFD05B;" d="M254.305,109.181L254.305,109.181L254.305,109.181z"/>
</g>
<g>
	<path style="fill:#FFFFFF;" d="M254.305,109.181L254.305,109.181L254.305,109.181z"/>
	<path style="fill:#FFFFFF;" d="M254.305,109.181L254.305,109.181L254.305,109.181z"/>
</g>
<polygon style="fill:#FF7058;" points="202.087,265.833 201.07,304.827 210.225,493.012 234.977,493.012 254.305,338.734 
	273.632,493.012 298.384,493.012 307.539,304.827 306.522,265.833 "/>
<polygon style="fill:#324A5E;" points="307.2,278.04 306.522,265.833 202.087,265.833 201.409,278.04 "/>
<g>
	<rect x="273.971" y="264.477" style="fill:#FF7058;" width="5.086" height="17.293"/>
	<rect x="229.552" y="264.477" style="fill:#FF7058;" width="5.086" height="17.293"/>
</g>
<g>
	<path style="fill:#324A5E;" d="M317.372,115.285c0,0,0,0.339,0,0.678C317.372,115.624,317.372,115.285,317.372,115.285z"/>
	<path style="fill:#324A5E;" d="M274.31,37.637c1.356,5.425,1.695,12.207,1.695,12.207c1.017-6.781,4.069-7.121,4.069-7.121
		c0.339-1.695,0.678-3.391,1.017-4.747h-6.781V37.637z"/>
	<path style="fill:#324A5E;" d="M233.621,37.637c-1.356,5.425-1.356,11.868-1.356,11.868c-1.017-6.781-4.069-7.121-4.069-7.121
		c-0.339-1.695-0.678-3.391-1.017-4.747H233.621z"/>
	<path style="fill:#324A5E;" d="M302.114,493.012h-28.482v11.868c0,2.034,1.695,3.73,3.73,3.73h38.654v-1.695
		C316.016,499.115,309.913,493.012,302.114,493.012z"/>
</g>
<path style="fill:#2B3B4E;" d="M206.495,493.012h28.482v11.868c0,2.034-1.695,3.73-3.73,3.73h-38.654v-1.695
	C192.593,499.115,199.036,493.012,206.495,493.012z"/>
<path style="fill:#FFD05B;" d="M242.776,255.322l-2.034-0.678l2.374-4.408l1.356,1.017
	C246.845,252.948,245.489,256.339,242.776,255.322z"/>
<g>
	<path style="fill:#324A5E;" d="M225.823,233.621l-20.683-14.241l-0.678-0.339c-0.678,10.511-1.695,20.683-2.374,34.246
		c3.73,2.713,8.138,5.086,12.885,7.46c1.695,1.017,3.73,0,4.408-1.695l7.799-21.362
		C227.518,235.995,227.179,234.638,225.823,233.621z"/>
	<path style="fill:#324A5E;" d="M204.122,195.984c0,1.017,0.339,2.034,0.339,3.052l0,0
		C204.461,198.019,204.461,197.001,204.122,195.984z"/>
	<path style="fill:#324A5E;" d="M282.448,90.872v66.797h-56.286V90.872c5.764-2.713,9.833-4.747,11.189-5.086
		c0.339,0,0.339,0,0.339,0v0.339c2.034,8.477,9.494,12.885,16.615,12.885s14.241-4.408,16.615-12.885v-0.339
		C270.919,85.785,275.666,87.82,282.448,90.872z"/>
	<path style="fill:#324A5E;" d="M337.377,213.277c-4.069-62.728-19.666-97.992-19.666-97.992
		c-4.408-5.764-12.546-11.528-20.344-16.275c-0.339,69.849,8.477,86.803,8.477,86.803l8.477,26.787l-10.85,6.781l-3.052,2.034
		v35.264c2.373-1.356,4.408-2.713,6.442-4.069c9.833-6.442,17.632-13.224,22.718-18.649
		C335.004,228.535,337.717,221.075,337.377,213.277z"/>
</g>
<path style="fill:#FF7058;" d="M304.487,217.685L304.487,217.685c-0.339-5.764,1.017-29.838,1.356-32.212
	c0,0-8.816-16.954-8.477-86.803c-5.086-3.052-10.172-5.764-14.58-7.799v66.797h-56.625V90.872c0,0,0,0-0.339,0
	c-1.017,0.678-2.374,1.017-3.391,1.695c-1.356,0.678-2.713,1.356-3.73,2.034c-2.373,1.356-4.747,2.713-7.121,4.069v3.052
	c0,67.136-8.477,83.412-8.477,83.412l0,0l0,0c0.339,2.034,1.356,31.195,1.356,33.568l0.678,0.339l20.683,14.241
	c1.017,0.678,1.695,2.374,1.017,3.73l-7.799,21.362c-0.678,1.695-2.713,2.713-4.408,1.695c-4.747-2.374-8.816-4.747-12.885-7.46
	c0,4.069,0,8.477,0,13.563h104.434C307.2,245.489,305.166,232.265,304.487,217.685z"/>
<g>
	<circle style="fill:#F1543F;" cx="280.752" cy="174.962" r="5.764"/>
	<circle style="fill:#F1543F;" cx="228.196" cy="174.962" r="5.764"/>
</g>
<path style="fill:#F9B54C;" d="M226.162,30.517c-2.373,4.408-3.391,8.816-1.356,10.85c4.408,4.408,16.276-2.374,29.16-2.034
	c12.885-0.678,25.091,6.103,29.16,2.034c2.034-2.374,1.017-6.442-1.356-10.85H226.162z"/>
<path style="fill:#FFD05B;" d="M283.804,34.246c0,0.339,0,0.339,0,0.678c-9.155-2.034-19.327-2.713-29.838-2.713
	c-10.85,0-21.023,0.678-29.838,2.713c0-0.339,0-0.339,0-0.678c0-18.31,13.563-32.212,29.838-32.212
	C270.58,1.695,283.804,15.936,283.804,34.246z"/>
<path style="fill:#F9B54C;" d="M268.885,28.821h-29.499c-1.356-7.121,0-18.31,4.747-25.091c3.052-1.356,6.442-2.034,10.172-2.034
	c3.391,0,6.781,0.678,10.172,2.034C268.885,10.511,269.902,21.701,268.885,28.821z"/>
<path style="fill:#FFD05B;" d="M247.184,2.713c-4.069,6.103-6.781,16.615-7.799,26.448h29.499
	c-0.678-9.833-3.73-20.344-7.799-26.448C260.069,1.017,258.034,0,256,0h-3.391C250.236,0,248.201,1.017,247.184,2.713z"/>
<path style="fill:#FFFFFF;" d="M235.995,281.77c-0.339-2.034-1.017-3.73-2.034-5.425l20.344-28.821c2.034,0.339,3.73,0.339,5.764,0
	c5.764-1.017,10.511-4.747,12.546-9.833l-14.919,2.713l-7.46-8.477l4.069-10.511l14.919-2.713c-3.73-4.069-9.494-6.103-15.258-5.086
	c-9.155,1.695-15.597,10.511-13.902,19.666c0.339,2.034,1.017,3.73,2.034,5.425l-20.344,28.821c-2.034-0.339-3.73-0.339-5.764,0
	c-5.764,1.017-10.511,4.747-12.546,9.833l14.919-2.713l7.46,8.477l-4.069,10.511l-14.919,2.713c3.73,4.069,9.494,6.103,15.258,5.086
	C231.248,299.74,237.351,290.924,235.995,281.77z"/>
<path style="fill:#FFD05B;" d="M244.132,271.597l9.494-13.902c1.695-2.374,1.017-5.425-1.356-7.121l-11.868-7.799
	c-0.678-0.339-1.356-0.678-2.373-0.678c-3.052-0.339-6.103-1.356-9.155-2.713l-5.764-3.391L217.685,256
	c2.374,2.034,4.408,4.408,5.764,7.46c0.339,0.678,1.017,1.356,1.695,1.695l11.868,7.799
	C239.385,274.649,242.437,273.971,244.132,271.597z"/>
<path style="fill:#324A5E;" d="M225.823,233.621l-21.701-14.919c0,0.339,0,0,0,0l-9.833-6.442l8.138-26.787c0,0,0,0,0.339-0.339l0,0
	l0,0c0,0,8.477-16.275,8.477-83.412V98.67c-8.138,4.747-15.936,10.511-20.344,16.275h-0.339c0,0-15.597,35.264-19.666,97.992
	c-0.339,7.799,2.374,15.597,7.799,21.023c5.086,5.425,12.885,12.207,22.718,18.649c0,0,0,0,0.339,0
	c3.73,2.713,8.138,5.086,12.885,7.46c1.695,1.017,3.73,0,4.408-1.695l7.799-21.362C227.518,235.995,227.179,234.638,225.823,233.621
	z"/>
<g>
</g>
<g>
</g>
<g>
</g>
<g>
</g>
<g>
</g>
<g>
</g>
<g>
</g>
<g>
</g>
<g>
</g>
<g>
</g>
<g>
</g>
<g>
</g>
<g>
</g>
<g>
</g>
<g>
</g>
</svg>
