<?xml version="1.0" encoding="iso-8859-1"?>
<!-- Generator: Adobe Illustrator 19.0.0, SVG Export Plug-In . SVG Version: 6.00 Build 0)  -->
<svg version="1.1" id="Layer_1" xmlns="http://www.w3.org/2000/svg" xmlns:xlink="http://www.w3.org/1999/xlink" x="0px" y="0px"
	 viewBox="0 0 512 512" style="enable-background:new 0 0 512 512;" xml:space="preserve">
<g>
	<circle style="fill:#FEE7BE;" cx="425.963" cy="181.047" r="21.113"/>
	<circle style="fill:#FEE7BE;" cx="189.493" cy="181.047" r="21.113"/>
	<circle style="fill:#FEE7BE;" cx="307.728" cy="155.711" r="109.79"/>
</g>
<path style="fill:#666666;" d="M307.728,45.922c-60.636,0-109.79,49.154-109.79,109.79c0,24.208,7.842,46.581,21.113,64.732v-79.511
	l88.676,21.113l88.676-21.113v79.511c13.272-18.151,21.113-40.524,21.113-64.732C417.518,95.076,368.363,45.922,307.728,45.922z"/>
<path style="fill:#F7D04A;" d="M307.728,24.808c-60.636,0-109.79,49.154-109.79,109.79h219.579
	C417.518,73.962,368.363,24.808,307.728,24.808z"/>
<g>
	<path style="fill:#F3B41B;" d="M326.73,26.452c-6.172-1.077-12.521-1.644-19.002-1.644c-60.636,0-109.79,49.154-109.79,109.79
		h38.004C235.942,80.444,275.152,35.452,326.73,26.452z"/>
	<path style="fill:#F3B41B;" d="M307.728,166.268c41.809,0,81.302-9.895,116.288-27.447H191.439
		C226.425,156.373,265.919,166.268,307.728,166.268z"/>
</g>
<g>
	<rect x="176.825" y="121.93" style="fill:#F7D04A;" width="261.806" height="21.113"/>
	<rect x="286.614" y="7.918" style="fill:#F7D04A;" width="42.227" height="114.012"/>
</g>
<path style="fill:#EB6836;" d="M434.408,504.082H181.047V307.728c0-17.491,14.179-31.67,31.67-31.67h190.021
	c17.491,0,31.67,14.179,31.67,31.67V504.082z"/>
<polygon style="fill:#F2F2F2;" points="269.724,276.058 345.732,276.058 307.728,326.73 "/>
<path style="fill:#C74B38;" d="M212.718,276.058c-17.491,0-31.67,14.179-31.67,31.67v196.355h164.6L230.754,276.058H212.718z"/>
<g>
	<rect x="181.047" y="326.73" style="fill:#F2F2F2;" width="253.361" height="44.338"/>
	<rect x="181.047" y="413.295" style="fill:#F2F2F2;" width="253.361" height="44.338"/>
</g>
<g>
	<polygon style="fill:#E5E5E5;" points="181.047,326.73 181.047,371.068 278.626,371.068 256.286,326.73 	"/>
	<polygon style="fill:#E5E5E5;" points="181.047,413.295 181.047,457.633 322.243,457.633 299.902,413.295 	"/>
	<path style="fill:#E5E5E5;" d="M467.134,436.52V316.526c18.954-5.854,32.726-23.511,32.726-44.387
		c0-20.484-13.266-37.858-31.67-44.034v50.368h-29.559v-50.368c-18.405,6.176-31.67,23.55-31.67,44.034
		c0,20.876,13.772,38.533,32.726,44.387V436.52H467.134z"/>
</g>
<path style="fill:#F7D04A;" d="M413.295,420.685v-59.118c0-8.745,7.09-15.835,15.835-15.835h54.895
	c8.745,0,15.835,7.09,15.835,15.835v59.118c0,8.745-7.09,15.835-15.835,15.835H429.13
	C420.385,436.52,413.295,429.43,413.295,420.685z"/>
<path style="fill:#F3B41B;" d="M429.13,345.732c-8.745,0-15.835,7.09-15.835,15.835v59.118c0,8.745,7.09,15.835,15.835,15.835
	h22.169v-90.788H429.13z"/>
<rect x="12.14" y="276.058" style="fill:#F2F2F2;" width="219.579" height="181.575"/>
<polygon style="fill:#E5E5E5;" points="12.14,276.058 12.14,457.633 144.843,457.633 37.206,276.058 "/>
<path style="fill:#62C9CC;" d="M155.711,233.831c0,27.986-50.672,88.676-50.672,88.676s-50.672-60.69-50.672-88.676
	s22.686-50.672,50.672-50.672S155.711,205.845,155.711,233.831z"/>
<path style="fill:#50A9A9;" d="M75.48,238.054c0-27.713,22.25-50.216,49.86-50.651c-6.217-2.723-13.08-4.244-20.302-4.244
	c-27.986,0-50.672,22.686-50.672,50.672s50.672,88.676,50.672,88.676s3.632-4.35,8.949-11.255
	C98.995,291.36,75.48,257.119,75.48,238.054z"/>
<circle style="fill:#F7D04A;" cx="105.039" cy="233.831" r="23.225"/>
<path d="M330.644,223.104c3.403-2.746,3.938-7.73,1.193-11.134c-2.744-3.405-7.73-3.938-11.133-1.194
	c-5.126,4.134-10.783,4.581-12.976,4.581c-6.586,0-11.268-3.203-12.976-4.579c-3.405-2.748-8.387-2.212-11.133,1.193
	c-2.745,3.405-2.211,8.388,1.193,11.133c3.746,3.02,11.704,8.089,22.916,8.089C312.541,231.192,321.916,230.141,330.644,223.104z"/>
<path d="M351.01,191.076h5.278c4.373,0,7.918-3.544,7.918-7.918s-3.545-7.918-7.918-7.918h-5.278c-4.373,0-7.918,3.544-7.918,7.918
	S346.638,191.076,351.01,191.076z"/>
<path d="M264.445,175.241h-5.278c-4.373,0-7.918,3.544-7.918,7.918s3.545,7.918,7.918,7.918h5.278c4.373,0,7.918-3.544,7.918-7.918
	S268.818,175.241,264.445,175.241z"/>
<path d="M484.025,337.814h-8.973v-15.78c19.796-8.53,32.726-27.902,32.726-49.895c0-23.388-14.897-44.101-37.069-51.54
	c-5.048-1.699-10.436,2.192-10.436,7.506v42.451h-13.724v-42.451c0-5.315-5.387-9.202-10.436-7.506
	c-20.899,7.012-35.329,25.819-36.918,47.541h-56.579c24.118-7.499,44.932-22.565,59.664-42.404c0.367-0.409,0.694-0.853,0.971-1.331
	c3.887-5.39,7.331-11.121,10.275-17.139c3.856,1.837,8.067,2.812,12.436,2.812c16.008,0,29.031-13.024,29.031-29.031
	s-13.022-29.031-29.03-29.031c-0.197,0-0.395,0.011-0.592,0.015c-0.011-0.357-0.024-0.714-0.038-1.07h13.298
	c4.373,0,7.918-3.544,7.918-7.918V121.93c0-4.374-3.545-7.918-7.918-7.918h-15.014c-8.007-45.275-42.375-82.2-86.858-93.507V7.918
	c0-4.374-3.545-7.918-7.918-7.918h-42.227c-4.373,0-7.918,3.544-7.918,7.918v12.588c-44.484,11.307-78.851,48.233-86.858,93.507
	h-15.014c-4.373,0-7.918,3.544-7.918,7.918v21.113c0,4.374,3.545,7.918,7.918,7.918h13.298c-0.014,0.357-0.027,0.714-0.038,1.07
	c-0.197-0.004-0.395-0.015-0.592-0.015c-16.008,0-29.031,13.024-29.031,29.031s13.023,29.031,29.031,29.031
	c4.368,0,8.579-0.975,12.436-2.812c2.944,6.018,6.388,11.749,10.275,17.139c0.278,0.478,0.604,0.923,0.971,1.331
	c14.731,19.839,35.547,34.905,59.664,42.404H152.227c6.653-12.522,11.402-24.792,11.402-34.309c0-32.307-26.283-58.59-58.59-58.59
	s-58.59,26.283-58.59,58.59c0,9.517,4.749,21.787,11.402,34.309H12.14c-4.373,0-7.918,3.544-7.918,7.918v181.575
	c0,4.374,3.545,7.918,7.918,7.918h25.336c4.373,0,7.918-3.544,7.918-7.918c0-4.374-3.545-7.918-7.918-7.918H20.058v-165.74h47.041
	c8.004,12.682,16.757,24.504,23.139,32.726h-50.65c-4.373,0-7.918,3.544-7.918,7.918v35.893c0,4.374,3.545,7.918,7.918,7.918
	h125.097v24.28h-59.645c-4.373,0-7.918,3.544-7.918,7.918v29.559c0,4.374,3.545,7.918,7.918,7.918c4.373,0,7.918-3.544,7.918-7.918
	v-21.641h59.645c4.373,0,7.918-3.544,7.918-7.918v-40.115c0-4.374-3.545-7.918-7.918-7.918H47.505v-20.058h156.767
	c4.373,0,7.918-3.544,7.918-7.918c0-4.374-3.545-7.918-7.918-7.918h-84.431c6.383-8.222,15.135-20.044,23.139-32.726h80.822v165.74
	H79.703c-4.373,0-7.918,3.544-7.918,7.918c0,4.374,3.545,7.918,7.918,7.918h94.558l-0.076,38.516
	c-0.008,4.317,3.601,7.933,7.918,7.933h184.742c4.373,0,7.918-3.544,7.918-7.918s-3.545-7.918-7.918-7.918H190.036l0.06-30.614
	h236.394v30.614h-17.419c-4.373,0-7.918,3.544-7.918,7.918S404.7,512,409.072,512h25.336c4.373,0,7.918-3.544,7.918-7.918v-59.645
	h41.699c13.098,0,23.753-10.656,23.753-23.753v-59.118C507.777,348.47,497.122,337.814,484.025,337.814z M205.856,155.711
	c0-0.538,0.031-1.079,0.038-1.618c1.741,0.718,3.488,1.411,5.24,2.091v31.911C207.713,177.916,205.856,167.027,205.856,155.711z
	 M409.562,154.093c0.008,0.539,0.038,1.08,0.038,1.618c0,11.316-1.857,22.205-5.278,32.384v-31.911
	C406.073,155.504,407.821,154.811,409.562,154.093z M439.159,181.047c0,7.277-5.919,13.196-13.196,13.196
	c-2.29,0-4.483-0.584-6.442-1.685c2.605-7.885,4.403-16.133,5.284-24.65c0.384-0.033,0.77-0.057,1.157-0.057
	C433.24,167.852,439.159,173.771,439.159,181.047z M294.532,15.835h26.392v32.198c0,4.374,3.545,7.918,7.918,7.918
	s7.918-3.544,7.918-7.918V36.925c35.706,10.624,63.21,40.492,70.745,77.087h-70.745V81.814c0-4.374-3.545-7.918-7.918-7.918
	s-7.918,3.544-7.918,7.918v32.198h-26.392V15.835z M278.697,36.925v77.087h-70.745C215.487,77.417,242.991,47.549,278.697,36.925z
	 M184.742,129.847h245.971v5.278H184.742V129.847z M368.485,150.961c-19.735,4.899-40.049,7.39-60.757,7.39
	c-20.706,0-41.021-2.49-60.756-7.39H368.485z M189.493,194.243c-7.277,0-13.196-5.919-13.196-13.196
	c0-7.277,5.919-13.196,13.196-13.196c0.387,0,0.773,0.024,1.157,0.057c0.88,8.517,2.678,16.765,5.284,24.649
	C193.976,193.66,191.783,194.243,189.493,194.243z M226.969,217.731V161.78c25.994,8.24,53.053,12.405,80.759,12.405
	c27.708,0,54.767-4.166,80.759-12.405v55.951c-18.641,24.216-47.906,39.853-80.759,39.853S245.61,241.947,226.969,217.731z
	 M105.039,191.076c23.575,0,42.755,19.179,42.755,42.755c0,16.414-24.155,52.524-42.755,76.102
	c-18.6-23.578-42.755-59.689-42.755-76.102C62.285,210.256,81.464,191.076,105.039,191.076z M430.713,240.993v37.481
	c0,4.374,3.545,7.918,7.918,7.918h29.559c4.373,0,7.918-3.544,7.918-7.918v-37.481c9.773,7.115,15.835,18.585,15.835,31.146
	c0,17.01-10.908,31.807-27.144,36.822c-3.318,1.025-5.581,4.092-5.581,7.565v21.289h-11.612v-21.289c0-3.473-2.263-6.54-5.581-7.565
	c-16.236-5.014-27.144-19.812-27.144-36.822C414.878,259.579,420.94,248.108,430.713,240.993z M239.637,405.377v-26.392h165.74
	v26.392H239.637z M263.881,283.975l27.425,34.837h-51.669v-34.837H263.881z M284.034,283.975h47.387l-23.693,30.097L284.034,283.975
	z M405.377,361.567v1.584h-165.74v-28.503h192.132v3.167h-2.639C416.032,337.814,405.377,348.47,405.377,361.567z M425.471,318.812
	H324.15l27.425-34.837h48.75C403.539,298.608,412.632,311.178,425.471,318.812z M239.637,449.715v-28.503h165.754
	c0.263,11.966,9.412,21.776,21.1,23.075v5.428H239.637z M491.942,420.685c0,4.366-3.551,7.918-7.918,7.918H429.13
	c-4.188,0-7.618-3.27-7.891-7.39h17.392c4.373,0,7.918-3.544,7.918-7.918s-3.545-7.918-7.918-7.918h-17.419v-5.278h17.419
	c4.373,0,7.918-3.544,7.918-7.918s-3.545-7.918-7.918-7.918h-17.419v-5.278h17.419c4.373,0,7.918-3.544,7.918-7.918
	s-3.545-7.918-7.918-7.918h-17.419v-1.584c0-4.366,3.551-7.918,7.918-7.918h54.895c4.366,0,7.918,3.551,7.918,7.918V420.685z"/>
<path d="M136.181,233.831c0-17.173-13.971-31.142-31.142-31.142s-31.142,13.97-31.142,31.142s13.971,31.142,31.142,31.142
	S136.181,251.004,136.181,233.831z M89.732,233.831c0-8.44,6.867-15.307,15.307-15.307s15.307,6.867,15.307,15.307
	s-6.867,15.307-15.307,15.307S89.732,242.271,89.732,233.831z"/>
<g>
</g>
<g>
</g>
<g>
</g>
<g>
</g>
<g>
</g>
<g>
</g>
<g>
</g>
<g>
</g>
<g>
</g>
<g>
</g>
<g>
</g>
<g>
</g>
<g>
</g>
<g>
</g>
<g>
</g>
</svg>
